<svg width="270" height="67" xmlns="http://www.w3.org/2000/svg"><g data-name="Canvas"><g data-name="Лого"><g data-name="Group" fill="none"><g data-name="Group"><g data-name="Group"><path d="M35.391 0c-2.048 0-4.497 1.011-5.327 3.277-.805 1.716-.764 15.34-1.2 15.34l-4.477 1.208c-.604-.042-6.513-7.72-8.137-10.372l-1.38-1.491c-.596-.273-1.356-.407-2.16-.407-2.517-.002-5.485 1.312-5.341 3.79.222 1.174 1.35 1.458 3.636 2.809l1.68 1.073c1.317.896 2.88 2.108 4.75 3.862 3.365 3.52 5.945 6.374 5.63 9.468-.294 2.895-7.844 9.038-15.694 15.422l-2.258 1.84c-1.06.864-2.11 1.727-3.139 2.583-4.59 3.225-.303 5.895 3.99 6.006a10.54 10.54 0 0 0 .915-.012c.142 0 .8-.042 1.84-.752.164-.178.328-.362.49-.542 6.281-6.915 12.15-14.677 15.121-14.677.19 0 .368.03.534.097 2.743 1.09 1.17 16.089 1.34 25.5.007.323.009.659.019.967 0 0 .01 1.997 2.328 1.997h3.003c2.135-.072 4.236-.436 3.882-1.997a13.97 13.97 0 0 0-.16-.813c-.078-.34-.174-.704-.3-1.12-1.983-10.998-2.84-28.934-2.426-33.858.565-6.674 1.28-16.913 5.46-25.872C39.4 1.217 37.637 0 35.391 0zm-7.529 10.79c-.467-2.03-2.07-3.45-3.76-3.45-.217 0-.437.023-.655.072-1.91.432-3.031 2.643-2.502 4.939.466 2.033 2.07 3.452 3.757 3.452.219 0 .438-.025.658-.073 1.91-.433 3.029-2.643 2.502-4.94z" fill="#ACB3BF" data-name="Vector"/></g><g data-name="Group"><path d="M71.4 65.033c-.212-.622-1.295-2.716-1.482-3.057C63.327 49.899 54.531 35.79 54.791 29.45c.203-4.921 4.349-12.996 6.96-17.868 3.445-6.423 5.9-7.125 6.415-9.155.1-1.448-2.1-2.375-4.35-2.375-1.7 0-3.427.527-4.22 1.756-1.319 2.05-5.858 14.6-6.333 14.6l-6.377.001c-.37 0-3.852-10.103-6.981-14.418C38.979.75 37.182-.008 35.169.008c-1.848.014-4.104 1.157-4.085 2.212.059 2.044 2.098 1.357 7.05 9.694 3.753 6.323 6.903 12.1 6.87 17.653-.036 6.678-8.589 21.973-14.737 32.452l-.11.183c-.858 1.246-1.469 2.092-1.81 2.831 0 0-1.074 1.967 1.085 1.967h4.63c2.59-.072 4.56-.435 5.298-1.967.196-.495.393-1.01.59-1.534 3.54-9.383 7.12-22.515 10.108-22.555h.016c3.011 0 6.876 12.403 10.654 22.567.16.431.322.863.482 1.286.027.069.178.398.213.462.74 1.364 2.515 1.663 4.774 1.73 0 0 2.955 0 4.038-.023 1.989-.029 1.175-1.829 1.166-1.933zM54.146 7.983c-.023-2.7-1.8-4.872-3.98-4.872h-.04c-2.195.03-3.955 2.258-3.933 4.977.022 2.7 1.796 4.867 3.973 4.867h.046c2.193-.028 3.955-2.253 3.934-4.972z" fill="#112E71" data-name="Vector"/></g><g data-name="Group"><path d="M97.627 48.476a479.514 479.514 0 0 0-3.664-3.015l-1.852-1.503c-7.8-6.347-15.277-12.443-15.571-15.322-.322-3.097 2.265-5.952 5.624-9.471 1.677-1.57 3.12-2.718 4.347-3.586l1.67-1.1c2.573-1.574 3.817-1.813 4.052-3.057.142-2.477-2.822-3.791-5.338-3.791-.988 0-1.91.203-2.542.619-.354.191-1.247 1.673-1.247 1.673-1.913 2.95-7.31 9.94-7.892 9.981l-4.475-1.21c-.435 0-.248-13.659-1.05-15.374-.797-2.18-3.383-3.216-5.523-3.216-2.308 0-4.096 1.203-2.562 3.472 4.18 8.951 4.886 19.026 5.45 25.7.412 4.903-.435 22.689-2.4 33.703-.008.051-.454 1.92-.514 2.087-.133.373-.657 1.92 2.333 1.92L68 66.99c.977-.003 1.847.004 2.532-.026 1.859-.084 2.83-.653 2.852-1.974.022-.697.03-1.438.031-2.2.024-9.432-1.296-23.15 1.325-24.19.165-.067.343-.099.534-.099 2.975 0 8.87 7.8 15.162 14.73 0 0 1.213 1.149 1.722 1.193.393.049.797.071 1.2.071 4.38 0 8.96-2.72 4.269-6.019zM78.66 12.43c.527-2.299-.594-4.51-2.506-4.939a2.96 2.96 0 0 0-.655-.073c-1.689 0-3.295 1.42-3.76 3.451-.527 2.294.593 4.504 2.506 4.94.218.048.437.072.655.072 1.686 0 3.29-1.42 3.76-3.45z" fill="#FF006D" data-name="Vector"/></g></g><g data-name="Group"><path d="M121.467 32.764h-3.124v-3.691h-6.92v3.69H108.3v-6.318h.987c.705-1.201 1.29-2.59 1.746-4.165.467-1.577.76-3.265.9-5.066h7.907v9.23h1.627v6.32zm-4.848-6.32v-6.61h-2.115a19.963 19.963 0 0 1-1.822 6.61h3.937zm12.245 2.629l-.608-1.216h-.065c-.434.53-.868.892-1.312 1.087-.445.194-1.02.291-1.714.291-.867 0-1.55-.259-2.05-.778-.499-.52-.748-1.25-.748-2.19 0-.98.347-1.708 1.03-2.187.673-.478 1.66-.748 2.961-.806l1.53-.05v-.13c0-.757-.37-1.135-1.118-1.135-.672 0-1.529.228-2.56.682l-.91-2.093c1.063-.551 2.418-.828 4.056-.828 1.171 0 2.093.293 2.733.877.651.583.976 1.4.976 2.45v6.026h-2.201zm-2.354-2.077c.38 0 .716-.121.987-.365a1.22 1.22 0 0 0 .412-.948v-.714l-.737.032c-1.042.038-1.562.422-1.562 1.152 0 .563.293.843.9.843zm15.943 2.077h-3.178v-6.83h-1.865c-.174 1.974-.402 3.425-.673 4.352-.27.927-.64 1.599-1.117 2.016-.477.416-1.117.624-1.93.624-.564 0-1.041-.081-1.432-.243v-2.361c.174.098.412.146.716.146.238 0 .434-.125.586-.377.151-.251.292-.652.4-1.204.12-.551.229-1.26.326-2.126.087-.865.185-1.927.271-3.187h7.896v9.19zm5.369-9.19v3.31h.293c1.605 0 2.754.22 3.47.665.716.443 1.074 1.167 1.074 2.173 0 1.055-.347 1.826-1.03 2.312-.694.487-1.736.73-3.124.73h-3.861v-9.19h3.178zm1.66 6.286c0-.32-.088-.55-.261-.689-.184-.14-.477-.211-.9-.211h-.5v1.727h.532c.76 0 1.128-.275 1.128-.827zm7.982-6.286v3.31h2.516v-3.31h3.178v9.19h-3.178v-3.52h-2.516v3.52h-3.178v-9.19h3.178zm12.32 9.352c-1.53 0-2.722-.406-3.568-1.22-.846-.814-1.269-1.974-1.269-3.477 0-1.551.39-2.742 1.182-3.573.781-.83 1.898-1.245 3.362-1.245 1.378 0 2.451.361 3.21 1.083.749.723 1.129 1.762 1.129 3.119v1.412h-5.673c.022.513.206.917.564 1.208.347.293.836.438 1.443.438a6.93 6.93 0 0 0 1.54-.158 7.55 7.55 0 0 0 1.518-.539v2.28a5.458 5.458 0 0 1-1.54.526c-.531.097-1.16.146-1.898.146zm-.184-7.357c-.38 0-.684.118-.944.353-.25.235-.39.604-.434 1.107h2.723c-.011-.444-.13-.798-.38-1.062-.239-.266-.564-.398-.965-.398zm15.033.382c0 .535-.152.978-.467 1.33-.314.351-.748.572-1.29.664v.065c.661.076 1.16.302 1.518.678.347.376.52.858.52 1.448 0 1.752-1.42 2.628-4.283 2.628h-5.01v-9.19h5.031c1.334 0 2.332.194 2.994.584.661.389.987.986.987 1.792zm-2.94 3.877c0-.287-.097-.492-.292-.617-.196-.124-.478-.186-.846-.186h-1.757v1.662h1.724c.781 0 1.172-.286 1.172-.86zm-.216-3.456c0-.481-.293-.722-.879-.722h-1.8v1.379h1.681c.336 0 .586-.062.748-.187a.573.573 0 0 0 .25-.47zm14.066 1.776c0 1.504-.4 2.676-1.214 3.517-.803.84-1.942 1.261-3.395 1.261-1.4 0-2.505-.43-3.33-1.29-.824-.859-1.236-2.022-1.236-3.488 0-1.498.401-2.661 1.215-3.492.802-.83 1.941-1.245 3.394-1.245.911 0 1.703.192 2.397.577a3.885 3.885 0 0 1 1.605 1.65c.38.717.564 1.553.564 2.51zm-5.954 0c0 .79.098 1.392.315 1.806.206.414.564.62 1.063.62.488 0 .846-.206 1.04-.62.207-.414.304-1.016.304-1.806 0-.783-.097-1.376-.303-1.776-.206-.4-.564-.6-1.052-.6-.488 0-.846.199-1.052.596-.217.397-.315.991-.315 1.78zm11.951 4.778c-1.496 0-2.646-.405-3.416-1.217-.78-.81-1.171-1.977-1.171-3.496 0-1.525.423-2.706 1.258-3.545.846-.837 2.04-1.257 3.59-1.257 1.063 0 2.06.233 3.004.698l-.932 2.344a9.6 9.6 0 0 0-1.063-.4 3.356 3.356 0 0 0-1.009-.151c-.52 0-.922.2-1.193.6-.282.4-.423.966-.423 1.695 0 1.472.542 2.206 1.627 2.206.933 0 1.822-.27 2.679-.81v2.523c-.814.54-1.8.81-2.95.81zm13.309-6.992h-3.026v6.83h-3.178v-6.83h-3.026v-2.36h9.23v2.36zm10.118 2.214c0 1.504-.412 2.676-1.214 3.517-.814.84-1.942 1.261-3.395 1.261-1.4 0-2.516-.43-3.34-1.29-.825-.859-1.237-2.022-1.237-3.488 0-1.498.412-2.661 1.215-3.492.813-.83 1.941-1.245 3.405-1.245.9 0 1.703.192 2.397.577a3.948 3.948 0 0 1 1.605 1.65c.37.717.564 1.553.564 2.51zm-5.965 0c0 .79.109 1.392.315 1.806.217.414.574.62 1.073.62.488 0 .836-.206 1.042-.62.206-.414.303-1.016.303-1.806 0-.783-.108-1.376-.314-1.776-.206-.4-.553-.6-1.052-.6-.488 0-.835.199-1.052.596-.206.397-.315.991-.315 1.78zm10.391-4.574v3.228c0 .633.282.95.867.95.619 0 1.324-.136 2.137-.407v-3.771h3.178v9.19h-3.178v-3.341c-1.041.454-2.017.68-2.907.68-1.117 0-1.941-.255-2.472-.766-.532-.512-.803-1.302-.803-2.372v-3.391h3.178zm11.551 0v3.31h2.516v-3.31h3.178v9.19h-3.178v-3.52h-2.516v3.52h-3.178v-9.19h3.178zm13.882 9.19l-.607-1.216h-.065c-.434.53-.867.892-1.312 1.087-.445.194-1.02.291-1.725.291-.856 0-1.54-.259-2.039-.778-.498-.52-.748-1.25-.748-2.19 0-.98.336-1.708 1.02-2.187.683-.478 1.67-.748 2.96-.806l1.54-.05v-.13c0-.757-.368-1.135-1.117-1.135-.672 0-1.529.228-2.56.682l-.921-2.093c1.074-.551 2.43-.828 4.067-.828 1.171 0 2.082.293 2.733.877.65.583.976 1.4.976 2.45v6.026h-2.202zm-2.353-2.077c.38 0 .705-.121.987-.365.271-.243.401-.56.401-.948v-.714l-.726.032c-1.041.038-1.562.422-1.562 1.152 0 .563.293.843.9.843zm8.774 2.077h-3.362l2.364-3.488a2.838 2.838 0 0 1-1.127-1.103c-.282-.476-.424-1.027-.424-1.655 0-.94.358-1.667 1.052-2.178.705-.51 1.692-.766 2.972-.766h4.393v9.19h-3.178v-3.188h-.933l-1.757 3.188zm.63-6.148c0 .28.097.498.303.652.195.154.488.232.857.232h.9v-1.85h-.911c-.358 0-.64.084-.846.252-.206.168-.304.405-.304.714zM121.944 45.22c0 1.33-.434 2.393-1.302 3.188-.867.794-2.104 1.26-3.698 1.395v3.991h-2.972v-3.991c-1.562-.163-2.798-.648-3.698-1.457-.89-.808-1.345-1.85-1.345-3.126 0-1.395.423-2.486 1.269-3.273.846-.787 2.093-1.232 3.73-1.335V37.18h3.016v3.43c1.583.142 2.82.617 3.687 1.43.868.81 1.313 1.87 1.313 3.179zm-9.87 0c0 .633.174 1.158.532 1.578.358.419.802.634 1.323.644v-4.469c-.5.022-.944.252-1.302.69a2.34 2.34 0 0 0-.553 1.557zm6.703 0c0-.617-.174-1.14-.532-1.57-.347-.43-.78-.655-1.301-.677v4.47c.531-.011.965-.224 1.312-.638.347-.413.52-.942.52-1.585zm7.776-4.608v2.734c0 .152-.043 1.114-.109 2.888l3.677-5.622h3.503v9.19h-2.82v-2.49c0-.87.033-1.9.109-3.09l-3.655 5.58h-3.525v-9.19h2.82zm17.799 2.361h-3.026v6.83h-3.178v-6.83h-3.026v-2.361h9.23v2.361zm4.663-2.361v3.31h2.516v-3.31h3.178v9.19h-3.178v-3.519h-2.516v3.52h-3.167v-9.191h3.167zm12.331 9.353c-1.53 0-2.722-.407-3.568-1.221-.846-.814-1.269-1.972-1.269-3.475 0-1.552.39-2.743 1.171-3.573.781-.83 1.91-1.246 3.362-1.246 1.389 0 2.463.361 3.211 1.083.76.722 1.128 1.762 1.128 3.119v1.41h-5.673c.022.515.217.918.564 1.21.358.292.836.438 1.454.438.553 0 1.073-.053 1.54-.158a7.494 7.494 0 0 0 1.518-.54v2.28a5.58 5.58 0 0 1-1.54.527c-.531.098-1.16.146-1.898.146zm-.195-7.357c-.369 0-.683.117-.933.352s-.401.605-.444 1.108h2.733c-.011-.443-.141-.798-.38-1.062-.239-.266-.564-.398-.976-.398zm10.217 7.357c-1.508 0-2.647-.406-3.417-1.217-.78-.811-1.171-1.976-1.171-3.496 0-1.525.423-2.707 1.258-3.545.846-.837 2.039-1.257 3.58-1.257 1.073 0 2.07.232 3.014.698l-.932 2.344c-.39-.168-.738-.302-1.063-.402a3.44 3.44 0 0 0-1.02-.15c-.51 0-.91.2-1.193.601-.282.4-.423.965-.423 1.695 0 1.47.553 2.206 1.638 2.206.933 0 1.822-.27 2.679-.811v2.523c-.825.54-1.8.811-2.95.811zm8.611-5.881h-4.587v2.53h4.587v-2.53zm7.451 5.719l-.607-1.217h-.065c-.434.53-.868.893-1.312 1.087-.445.195-1.02.292-1.725.292-.856 0-1.54-.26-2.039-.779-.499-.519-.748-1.25-.748-2.19 0-.979.336-1.707 1.02-2.186.683-.479 1.67-.748 2.96-.807l1.54-.049v-.129c0-.757-.38-1.136-1.117-1.136-.672 0-1.529.227-2.56.68l-.921-2.092c1.074-.551 2.43-.827 4.056-.827 1.182 0 2.094.292 2.744.876.651.584.965 1.401.965 2.45v6.027h-2.19zm-2.353-2.077c.38 0 .705-.121.976-.365.282-.244.412-.559.412-.95V45.7l-.726.032c-1.042.037-1.562.422-1.562 1.151 0 .563.293.844.9.844zm13.145-7.114h3.514l-3.448 4.405 3.709 4.786h-3.623l-3.416-4.664v4.664h-3.167v-9.191h3.167v4.454l3.264-4.454zm10.802 9.191l-.607-1.217h-.065c-.434.53-.867.893-1.312 1.087-.445.195-1.02.292-1.725.292-.867 0-1.54-.26-2.039-.779-.498-.519-.748-1.25-.748-2.19 0-.979.336-1.707 1.02-2.186.683-.479 1.67-.748 2.96-.807l1.54-.049v-.129c0-.757-.38-1.136-1.117-1.136-.672 0-1.529.227-2.56.68l-.921-2.092c1.074-.551 2.43-.827 4.067-.827 1.171 0 2.082.292 2.733.876.651.584.976 1.401.976 2.45v6.027h-2.202zm-2.353-2.077c.38 0 .705-.121.987-.365.271-.244.401-.559.401-.95V45.7l-.726.032c-1.041.037-1.573.422-1.573 1.151 0 .563.304.844.911.844zm17.451 5.451h-2.777v-3.374h-6.085v3.374h-2.776v-5.735h.814c.477-.8.867-1.8 1.192-2.997.326-1.198.543-2.475.673-3.833h7.592v6.83h1.367v5.735zm-4.534-5.735v-4.469h-1.811a22.21 22.21 0 0 1-.401 2.133 24.17 24.17 0 0 1-.727 2.336h2.939zm10.272 2.523c-1.53 0-2.723-.407-3.569-1.221-.846-.814-1.27-1.972-1.27-3.475 0-1.552.391-2.743 1.183-3.573.781-.83 1.898-1.246 3.352-1.246 1.388 0 2.462.361 3.21 1.083.76.722 1.139 1.762 1.139 3.119v1.41h-5.673c.022.515.206.918.564 1.21.347.292.835.438 1.443.438.564 0 1.073-.053 1.54-.158a7.493 7.493 0 0 0 1.518-.54v2.28a5.46 5.46 0 0 1-1.54.527c-.531.098-1.16.146-1.898.146zm-.185-7.357c-.38 0-.683.117-.944.352-.25.235-.39.605-.434 1.108h2.723c-.011-.443-.141-.798-.38-1.062-.238-.266-.564-.398-.965-.398zm18.112 7.195h-2.842V42.94a41.997 41.997 0 0 1-.596 2.16c-.217.745-.727 2.311-1.518 4.702h-2.159l-.954-2.937c-.315-.984-.65-2.09-.998-3.317l-.184-.608v6.862h-2.842v-9.191h4.35l.715 2.15c.13.41.314 1.064.553 1.96.239.894.39 1.514.445 1.86.032-.254.217-.973.575-2.158l.314-1.087.89-2.725h4.25v9.19zm5.011-9.191v2.734c0 .152-.044 1.114-.109 2.888l3.677-5.622h3.503v9.19h-2.82v-2.49c0-.87.033-1.9.109-3.09l-3.655 5.58h-3.525v-9.19h2.82zm11.323 9.191h-3.35l2.353-3.489a2.973 2.973 0 0 1-1.128-1.102c-.272-.477-.412-1.028-.412-1.655 0-.941.347-1.667 1.052-2.178.705-.511 1.691-.767 2.971-.767H270v9.19h-3.178v-3.187h-.933l-1.768 3.188zm.64-6.15c0 .283.098.5.304.654.195.154.477.231.857.231h.9V42.69h-.922c-.358 0-.629.084-.835.252-.206.167-.304.405-.304.713z" fill="#112E71" data-name="Vector"/></g></g></g></g></svg>