<svg width="64" height="64" xmlns="http://www.w3.org/2000/svg"><g fill="none"><path fill="#000" d="M0 0h64v64H0z"/><path d="M21.262 35.402l1.64 4.36 1.637-4.36h1.278v5.688h-.985v-1.875l.098-2.508-1.68 4.383h-.707l-1.676-4.38.098 2.505v1.875h-.984v-5.688h1.281zm8.984 3.149H27.91v1.75h2.73v.789h-3.718v-5.688h3.691v.797H27.91v1.57h2.336v.782zm5.648 2.539h-.984v-2.528h-2.543v2.528h-.988v-5.688h.988v2.367h2.543v-2.367h.984v5.688zm7.555-2.696c0 .558-.097 1.047-.29 1.47a2.193 2.193 0 0 1-.827.968 2.272 2.272 0 0 1-1.235.336c-.435 0-.824-.099-1.168-.297a2.181 2.181 0 0 1-.824-.852 3.1 3.1 0 0 1-.363-1.292h-.711v2.363h-.985v-5.688h.985v2.559h.699c.016-.524.124-.986.324-1.387a2.2 2.2 0 0 1 .828-.926 2.27 2.27 0 0 1 1.207-.324c.464 0 .874.112 1.23.336.36.221.637.542.833.961.195.417.294.902.297 1.457v.316zm-.988-.296c0-.63-.12-1.114-.36-1.45-.237-.336-.574-.504-1.012-.504-.427 0-.761.168-1.003.504-.24.334-.363.806-.368 1.418v.328c0 .625.121 1.109.363 1.45.245.34.584.511 1.016.511.438 0 .774-.166 1.008-.5.237-.333.356-.82.356-1.46v-.297zM20.937 21.029h22.272v2.09H20.937zm0 6.791h22.272v2.09H20.937z" fill="#fff"/></g></svg>