<svg width="32" height="32" viewBox="0 0 32 32" version="1.1" xmlns="http://www.w3.org/2000/svg" xmlns:xlink="http://www.w3.org/1999/xlink">
<g id="Canvas" fill="none">
<g id="facebook">
<g id="Group">
<g id="Group_2">
<g id="Vector">
<path d="M 27.3125 0L 4.6875 0C 2.10281 0 0 2.10281 0 4.6875L 0 27.3125C 0 29.8972 2.10281 32 4.6875 32L 27.3125 32C 29.8972 32 32 29.8972 32 27.3125L 32 4.6875C 32 2.10281 29.8972 0 27.3125 0ZM 18.8125 19.6875L 18.8125 30.125L 16.9375 30.125L 16.9375 19.6875C 16.9375 19.1698 16.5177 18.75 16 18.75L 13.1875 18.75L 13.1875 16.875L 16 16.875C 16.5177 16.875 16.9375 16.4552 16.9375 15.9375L 16.9375 12.1875C 16.9375 9.60281 19.0403 7.5 21.625 7.5L 24.4375 7.5L 24.4375 9.375L 21.625 9.375C 20.0742 9.375 18.8125 10.6367 18.8125 12.1875L 18.8125 15.9375C 18.8125 16.4552 19.2323 16.875 19.75 16.875L 24.1742 16.875L 23.7055 18.75L 19.75 18.75C 19.2323 18.75 18.8125 19.1698 18.8125 19.6875ZM 30.125 27.3125C 30.125 28.8633 28.8633 30.125 27.3125 30.125L 20.6875 30.125L 20.6875 20.625L 24.4375 20.625C 24.8677 20.625 25.2427 20.3322 25.347 19.9149L 26.2845 16.1649C 26.4325 15.5731 25.9838 15 25.375 15L 20.6875 15L 20.6875 12.1875C 20.6875 11.6706 21.1081 11.25 21.625 11.25L 25.375 11.25C 25.8927 11.25 26.3125 10.8302 26.3125 10.3125L 26.3125 6.5625C 26.3125 6.04475 25.8927 5.625 25.375 5.625L 21.625 5.625C 18.0064 5.625 15.0625 8.56894 15.0625 12.1875L 15.0625 15L 12.25 15C 11.7323 15 11.3125 15.4198 11.3125 15.9375L 11.3125 19.6875C 11.3125 20.2052 11.7323 20.6187 12.25 20.6187L 15.0625 20.6187L 15.0625 30.125L 4.6875 30.125C 3.13669 30.125 1.875 28.8633 1.875 27.3125L 1.875 4.6875C 1.875 3.13669 3.13669 1.875 4.6875 1.875L 27.3125 1.875C 28.8633 1.875 30.125 3.13669 30.125 4.6875L 30.125 27.3125Z" fill="#06112F"/>
</g>
</g>
</g>
</g>
</g>
</svg>

