<svg width="32" height="32" viewBox="0 0 32 32" version="1.1" xmlns="http://www.w3.org/2000/svg" xmlns:xlink="http://www.w3.org/1999/xlink">
<g id="Canvas" fill="none">
<g id="instagram-logo">
<g id="Group">
<g id="Vector">
<path d="M 23.169 0L 8.83065 0C 3.96143 0 0 3.96162 0 8.83084L 0 23.1692C 0 28.0386 3.96143 32 8.83065 32L 23.169 32C 28.0386 32 32 28.0384 32 23.1692L 32 8.83084C 32.0002 3.96162 28.0386 0 23.169 0ZM 29.161 23.1692C 29.161 26.473 26.473 29.1608 23.1692 29.1608L 8.83065 29.1608C 5.52697 29.161 2.8392 26.473 2.8392 23.1692L 2.8392 8.83084C 2.8392 5.52716 5.52697 2.8392 8.83065 2.8392L 23.169 2.8392C 26.4728 2.8392 29.1608 5.52716 29.1608 8.83084L 29.1608 23.1692L 29.161 23.1692Z" fill="#06112F"/>
</g>
<g id="Vector_2">
<path d="M 8.24559 2.31054e-07C 3.6989 2.31054e-07 -2.83041e-07 3.6989 -2.83041e-07 8.24559C -2.83041e-07 12.7921 3.6989 16.4908 8.24559 16.4908C 12.7923 16.4908 16.4912 12.7921 16.4912 8.24559C 16.4912 3.6989 12.7923 2.31054e-07 8.24559 2.31054e-07ZM 8.24559 13.6514C 5.26463 13.6514 2.83919 11.2264 2.83919 8.2454C 2.83919 5.26425 5.26444 2.83901 8.24559 2.83901C 11.2267 2.83901 13.652 5.26425 13.652 8.2454C 13.652 11.2264 11.2266 13.6514 8.24559 13.6514Z" transform="translate(7.75439 7.75476)" fill="#06112F"/>
</g>
<g id="Vector_3">
<path d="M 2.08208 -1.03974e-07C 1.53506 -1.03974e-07 0.997693 0.221457 0.611373 0.609481C 0.223161 0.995611 -4.50556e-07 1.53317 -4.50556e-07 2.08208C -4.50556e-07 2.62928 0.22335 3.16665 0.611373 3.55467C 0.997504 3.9408 1.53506 4.16415 2.08208 4.16415C 2.63099 4.16415 3.16665 3.9408 3.55467 3.55467C 3.9427 3.16665 4.16415 2.62909 4.16415 2.08208C 4.16415 1.53317 3.9427 0.995611 3.55467 0.609481C 3.16854 0.221457 2.63099 -1.03974e-07 2.08208 -1.03974e-07Z" transform="translate(22.5093 5.34735)" fill="#06112F"/>
</g>
</g>
</g>
</g>
</svg>

