<svg width="32" height="32" viewBox="0 0 32 32" version="1.1" xmlns="http://www.w3.org/2000/svg" xmlns:xlink="http://www.w3.org/1999/xlink">
<g id="Canvas" fill="none">
<g id="whatsapp">
<g id="Vector">
<path d="M 16.004 0L 15.996 0C 7.174 0 0 7.176 0 16C 0 19.5 1.128 22.744 3.046 25.378L 1.052 31.322L 7.202 29.356C 9.732 31.032 12.75 32 16.004 32C 24.826 32 32 24.822 32 16C 32 7.178 24.826 0 16.004 0Z" fill="#4CAF50"/>
</g>
<g id="Vector_2">
<path d="M 18.61 15.276C 18.224 16.366 16.692 17.27 15.47 17.534C 14.634 17.712 13.542 17.854 9.866 16.33C 5.164 14.382 2.136 9.604 1.9 9.294C 1.674 8.984 -3.8147e-09 6.764 -3.8147e-09 4.468C -3.8147e-09 2.172 1.166 1.054 1.636 0.574C 2.022 0.18 2.66 -1.60217e-07 3.272 -1.60217e-07C 3.47 -1.60217e-07 3.648 0.00999997 3.808 0.018C 4.278 0.038 4.514 0.0660004 4.824 0.808001C 5.21 1.738 6.15 4.034 6.262 4.27C 6.376 4.506 6.49 4.826 6.33 5.136C 6.18 5.456 6.048 5.598 5.812 5.87C 5.576 6.142 5.352 6.35 5.116 6.642C 4.9 6.896 4.656 7.168 4.928 7.638C 5.2 8.098 6.14 9.632 7.524 10.864C 9.31 12.454 10.758 12.962 11.276 13.178C 11.662 13.338 12.122 13.3 12.404 13C 12.762 12.614 13.204 11.974 13.654 11.344C 13.974 10.892 14.378 10.836 14.802 10.996C 15.234 11.146 17.52 12.276 17.99 12.51C 18.46 12.746 18.77 12.858 18.884 13.056C 18.996 13.254 18.996 14.184 18.61 15.276Z" transform="translate(6.7041 7.31836)" fill="#FAFAFA"/>
</g>
</g>
</g>
</svg>

