<svg width="32" height="32" xmlns="http://www.w3.org/2000/svg"><path d="M27.313 0H4.688A4.693 4.693 0 0 0 0 4.688v22.625A4.693 4.693 0 0 0 4.688 32h22.625A4.693 4.693 0 0 0 32 27.312V4.688A4.693 4.693 0 0 0 27.312 0zm-8.5 19.688v10.437h-1.875V19.687A.938.938 0 0 0 16 18.75h-2.813v-1.875H16c.518 0 .938-.42.938-.938v-3.75A4.693 4.693 0 0 1 21.625 7.5h2.813v1.875h-2.813a2.816 2.816 0 0 0-2.813 2.813v3.75c0 .517.42.937.938.937h4.424l-.468 1.875H19.75a.938.938 0 0 0-.938.938zm11.312 7.625a2.816 2.816 0 0 1-2.813 2.812h-6.625v-9.5h3.75c.43 0 .806-.293.91-.71l.938-3.75a.938.938 0 0 0-.91-1.165h-4.688v-2.813a.94.94 0 0 1 .938-.937h3.75c.518 0 .938-.42.938-.938v-3.75a.938.938 0 0 0-.938-.937h-3.75a6.57 6.57 0 0 0-6.563 6.563V15H12.25a.938.938 0 0 0-.938.938v3.75c0 .517.42.93.938.93h2.813v9.507H4.687a2.816 2.816 0 0 1-2.812-2.813V4.688a2.816 2.816 0 0 1 2.813-2.812h22.625a2.816 2.816 0 0 1 2.812 2.813v22.625z" fill="#06112F"/></svg>