<svg width="22" height="22" viewBox="0 0 22 22" version="1.1" xmlns="http://www.w3.org/2000/svg" xmlns:xlink="http://www.w3.org/1999/xlink">
<g id="Canvas" fill="none">
<g id="Group 55.1">
<g id="Ellipse 2">
<circle cx="11" cy="11" r="11" fill="#FF006D"/>
</g>
<g id="Union">
<path fill-rule="evenodd" clip-rule="evenodd" d="M 0.000345267 6.31044L 0.000690534 0.999893C 0.000690534 0.878359 0.0220971 0.761659 0.0618028 0.654281C 0.202154 0.272243 0.569863 -0.000172551 1.00058 8.20034e-08C 1.55301 8.20034e-08 2.00048 0.447466 2.00048 0.999893L 2.00117 5.33714L 11.0002 5.33714C 11.5526 5.33714 12.0001 5.7846 12.0001 6.33703C 12.0003 6.62136 11.8818 6.87789 11.6914 7.06002C 11.5117 7.23144 11.2681 7.33692 11 7.3371L 0.999893 7.33692C 0.447639 7.33675 0.000172633 6.88929 0 6.33703C 0.000345267 6.3284 0 6.31908 0.000345267 6.31044Z" transform="matrix(0.707107 -0.707107 0.707107 0.707107 5 11.4858)" fill="white"/>
</g>
</g>
</g>
</svg>

