<svg width="270" height="83" viewBox="0 0 270 83" version="1.1" xmlns="http://www.w3.org/2000/svg" xmlns:xlink="http://www.w3.org/1999/xlink">
<g id="Canvas" fill="none">
<g id="logo_horizontal">
<g id="&#208;&#161;&#208;&#187;&#208;&#190;&#208;&#185; 1">
<g id="Group">
<g id="Vector">
<path d="M 2.80338 12.3373L 2.80338 8.15361C 3.2425 8.20707 3.90846 8.20707 4.17212 8.20707C 7.01041 8.2061 8.7097 6.27365 8.7097 4.07583C 8.7097 1.948 7.48443 1.77989e-06 3.75045 1.77989e-06C 2.80339 1.77989e-06 0.682424 0.0349951 -5.08819e-06 0.0349951L -5.08819e-06 12.3364L 2.80338 12.3364L 2.80338 12.3373ZM 4.0306 2.63525C 5.02904 2.63525 5.73279 2.96866 5.73279 4.06028C 5.73279 5.25591 4.81966 5.57183 4.08488 5.57183C 3.68066 5.57183 3.20761 5.53781 2.80338 5.48434L 2.80338 2.67024C 3.38112 2.65274 3.66127 2.63525 4.0306 2.63525ZM 8.69613 8.38496C 8.69613 10.7577 10.378 12.5492 13.0776 12.5492C 15.7763 12.5492 17.4601 10.7577 17.4601 8.38399C 17.4601 6.01023 15.7763 4.21872 13.0776 4.21872C 10.378 4.21872 8.69613 6.01023 8.69613 8.38399L 8.69613 8.38496ZM 11.4985 8.38399C 11.4985 7.31084 12.2353 6.67803 13.0776 6.67803C 13.953 6.67803 14.6548 7.3643 14.6548 8.38399C 14.6548 9.45714 13.9724 10.0899 13.0776 10.0899C 12.1829 10.0899 11.4985 9.38618 11.4985 8.38399ZM 25.1646 9.21023C 24.6935 9.72154 24.1497 10.0899 23.3781 10.0899C 22.5541 10.0899 21.6429 9.45714 21.6429 8.38399C 21.6429 7.25835 22.5182 6.67803 23.3422 6.67803C 23.9393 6.67803 24.4647 6.853 25.025 7.41582L 26.2348 5.34242C 25.5165 4.58713 24.359 4.21872 23.0097 4.21872C 20.5223 4.21872 18.8395 6.08021 18.8395 8.38399C 18.8395 10.8802 20.5388 12.5492 23.1677 12.5492C 24.5335 12.5492 25.7268 12.0574 26.3918 11.1427L 25.1646 9.21023ZM 33.2549 9.21023C 32.7808 9.72154 32.238 10.0899 31.4664 10.0899C 30.6424 10.0899 29.7312 9.45714 29.7312 8.38399C 29.7312 7.25835 30.6085 6.67803 31.4315 6.67803C 32.0267 6.67803 32.5531 6.853 33.1153 7.41582L 34.325 5.34242C 33.6048 4.58713 32.4484 4.21872 31.099 4.21872C 28.6107 4.21872 26.9298 6.08021 26.9298 8.38399C 26.9298 10.8802 28.6271 12.5492 31.256 12.5492C 32.6238 12.5492 33.8152 12.0574 34.4811 11.1427L 33.2549 9.21023ZM 38.2539 12.3373L 41.0602 8.20805L 41.0602 12.3373L 43.6871 12.3373L 43.6871 4.43063L 41.0602 4.43063L 38.2539 8.55993L 38.2539 4.43063L 35.6269 4.43063L 35.6269 12.3373L 38.2539 12.3373ZM 47.995 12.3373L 50.8003 8.20805L 50.8003 12.3373L 53.4273 12.3373L 53.4273 4.43063L 50.8003 4.43063L 47.995 8.55993L 47.995 4.43063L 45.368 4.43063L 45.368 12.3373L 47.995 12.3373Z" transform="translate(133.485 50.0225)" fill="#231F20"/>
</g>
<g id="Vector_2">
<path d="M 4.29523 16.0282L 6.9222 16.0282L 6.9222 12.7242L 6.97455 12.7242C 9.91947 12.7242 11.2165 10.9152 11.2165 8.55798C 11.2165 6.23866 9.77988 4.39467 6.97455 4.39467L 6.9222 4.39467L 6.9222 0.210935L 4.29523 0.210935L 4.29523 4.39467L 4.26034 4.39467C 1.45404 4.39467 -4.7332e-06 6.41363 -4.7332e-06 8.55798C -4.7332e-06 10.9152 1.47149 12.7242 4.27681 12.7242L 4.29523 12.7242L 4.29523 16.0282ZM 2.80242 8.55798C 2.80242 7.67924 3.06608 6.85299 4.24288 6.85299L 4.29523 6.85299L 4.29523 10.2649C 3.24154 10.2474 2.80242 9.56212 2.80242 8.55798ZM 6.97455 6.85299C 8.02727 6.85299 8.41405 7.67924 8.41405 8.55798C 8.41405 9.57961 7.99238 10.2649 6.9222 10.2649L 6.9222 6.85299L 6.97455 6.85299ZM 15.2635 12.5133L 18.0718 8.38398L 18.0718 12.5133L 20.6988 12.5133L 20.6988 4.6056L 18.0718 4.6056L 15.2635 8.7349L 15.2635 4.6056L 12.6385 4.6056L 12.6385 12.5133L 15.2635 12.5133ZM 21.8979 7.2389L 24.1778 7.2389L 24.1778 12.5133L 26.8048 12.5133L 26.8048 7.2389L 29.0827 7.2389L 29.0827 4.6056L 21.8979 4.6056L 21.8979 7.2389ZM 35.5397 12.5133L 38.1666 12.5133L 38.1666 4.6056L 35.5397 4.6056L 35.5397 7.3293L 32.996 7.3293L 32.996 4.6056L 30.3691 4.6056L 30.3691 12.5133L 32.996 12.5133L 32.996 9.78861L 35.5397 9.78861L 35.5397 12.5133ZM 46.1173 9.96649C 45.6976 10.2299 44.9609 10.5283 44.0497 10.5283C 43.1889 10.5283 42.4522 10.194 42.2069 9.43964L 47.4318 9.43964C 47.5355 9.08678 47.5898 8.73587 47.5898 8.12056C 47.5898 5.86928 45.8023 4.39467 43.7695 4.39467C 41.1755 4.39467 39.4937 6.25615 39.4937 8.55993C 39.4937 11.0552 41.1755 12.7242 43.7695 12.7242C 44.892 12.7242 46.0126 12.4433 46.8366 11.828L 46.1173 9.96649ZM 43.6823 6.58957C 44.5227 6.58957 44.9609 7.13489 44.9609 7.68119L 42.1206 7.68119C 42.3649 6.97645 42.805 6.58957 43.6823 6.58957ZM 54.9084 9.38618C 54.4354 9.89553 53.8916 10.2649 53.1209 10.2649C 52.298 10.2649 51.3848 9.63211 51.3848 8.55798C 51.3848 7.43331 52.2621 6.85299 53.086 6.85299C 53.6812 6.85299 54.2066 7.02797 54.7669 7.59079L 55.9767 5.51836C 55.2584 4.7621 54.1029 4.39467 52.7536 4.39467C 50.2642 4.39467 48.5834 6.25615 48.5834 8.55798C 48.5834 11.0552 50.2807 12.7242 52.9096 12.7242C 54.2784 12.7242 55.4687 12.2324 56.1356 11.3186L 54.9084 9.38618ZM 57.0604 9.78083L 61.6872 9.78083L 61.6872 7.3225L 57.0604 7.3225L 57.0604 9.78083ZM 64.5109 7.0824C 65.0024 6.88993 65.5976 6.58957 66.5272 6.58957C 67.229 6.58957 67.6671 6.99492 67.6148 7.94462C 67.3696 7.75215 66.7724 7.50525 66.0716 7.50525C 64.5109 7.50525 63.2333 8.33149 63.2333 10.1249C 63.2333 11.722 64.3015 12.6183 65.7187 12.6183C 66.5795 12.6183 67.4045 12.3373 67.7912 11.793L 67.7912 12.5133L 70.0663 12.5133L 70.0663 7.75215C 70.0663 5.60585 69.19 4.39467 66.7899 4.39467C 65.6848 4.39467 64.4944 4.78057 63.8634 5.16648L 64.5109 7.0824ZM 66.6144 10.4224C 66.1753 10.4224 65.8603 10.2124 65.8603 9.86054C 65.8603 9.47463 66.1753 9.26272 66.6144 9.26272C 67.0545 9.26272 67.3696 9.35118 67.6148 9.52713L 67.6148 10.019C 67.4568 10.2299 67.1418 10.4224 66.6144 10.4224ZM 73.049 9.40367L 76.2053 9.40367C 75.9765 10.1415 75.3629 10.4409 74.4517 10.4409C 73.5221 10.4409 72.7854 10.0365 72.4538 9.73709L 71.2257 11.4586C 71.9449 12.2149 72.9618 12.7242 74.6078 12.7242C 77.448 12.7242 78.9534 10.8627 78.9534 8.55993C 78.9534 6.00925 77.2561 4.39467 74.4517 4.39467C 73.4697 4.39467 72.1204 4.74558 71.3313 5.55336L 72.4005 7.3818C 73.083 6.95798 73.6452 6.67705 74.5041 6.67705C 75.1884 6.67705 75.8524 6.94048 76.152 7.64619L 73.049 7.64619L 73.049 9.40367ZM 80.4239 16.0282L 83.0509 16.0282L 83.0509 12.4783C 83.4202 12.6367 83.9824 12.7242 84.5263 12.7242C 87.0844 12.7242 88.7672 10.8443 88.7672 8.4355C 88.7672 6.09771 87.3646 4.39467 85.2446 4.39467C 84.281 4.39467 83.49 4.7621 83.0509 5.20245L 83.0509 4.6056L 80.4239 4.6056L 80.4239 16.0282ZM 84.4216 6.85299C 85.4191 6.85299 85.9638 7.57426 85.9638 8.48897C 85.9638 9.45616 85.4191 10.2649 84.281 10.2649C 83.7188 10.2649 83.4387 10.194 83.0509 9.96649L 83.0509 7.55774C 83.49 7.06393 83.9117 6.85299 84.4216 6.85299ZM 90.1466 8.55798C 90.1466 10.9327 91.8285 12.7242 94.5291 12.7242C 97.2268 12.7242 98.9096 10.9327 98.9096 8.55798C 98.9096 6.18617 97.2268 4.39467 94.5291 4.39467C 91.8285 4.39467 90.1466 6.18617 90.1466 8.55798ZM 92.95 8.55798C 92.95 7.48678 93.6867 6.85299 94.5291 6.85299C 95.4064 6.85299 96.1082 7.53927 96.1082 8.55798C 96.1082 9.63211 95.4238 10.2649 94.5291 10.2649C 93.6334 10.2649 92.95 9.56212 92.95 8.55798ZM 106.521 -7.4162e-07C 105.696 0.861241 104.873 0.579345 103.277 1.28311C 100.964 2.30183 100.245 4.78057 100.245 7.64425C 100.245 10.7403 101.857 12.7242 104.608 12.7242C 107.203 12.7242 108.814 10.8443 108.814 8.62894C 108.814 6.25712 107.395 4.78057 105.328 4.78057C 104.327 4.78057 103.364 5.2909 102.907 5.88774L 102.872 5.88774C 102.996 4.90402 103.451 4.21873 104.24 3.79685C 105.574 3.09308 106.765 3.37401 107.886 2.17935L 106.521 -7.4162e-07ZM 103.049 8.2061C 103.329 7.59079 103.907 7.2389 104.644 7.2389C 105.574 7.2389 106.014 7.94364 106.014 8.75337C 106.014 9.56212 105.537 10.2649 104.539 10.2649C 103.539 10.2649 103.066 9.22676 103.049 8.2061ZM 112.944 12.5133L 115.75 8.38398L 115.75 12.5133L 118.377 12.5133L 118.377 4.6056L 115.75 4.6056L 112.944 8.7349L 112.944 4.6056L 110.316 4.6056L 110.316 12.5133L 112.944 12.5133ZM 120.057 12.5133L 122.684 12.5133L 122.684 8.82238L 125.102 12.5133L 128.502 12.5133L 125.558 8.36551L 128.116 4.6056L 124.822 4.6056L 122.684 8.26053L 122.684 4.6056L 120.057 4.6056L 120.057 12.5133ZM 132.133 12.5133L 134.939 8.38398L 134.939 12.5133L 137.566 12.5133L 137.566 4.6056L 134.939 4.6056L 132.133 8.7349L 132.133 4.6056L 129.505 4.6056L 129.505 12.5133L 132.133 12.5133Z" transform="translate(132.434 31.5244)" fill="#231F20"/>
</g>
<g id="Vector_3">
<path d="M 5.45071 12.5833L 8.2541 12.5833L 8.2541 10.9298C 11.516 10.8958 13.7387 9.17427 13.7387 6.11521C 13.7387 3.10864 11.4462 1.37157 8.2541 1.30061L 8.2541 6.97123e-07L 5.45071 6.97123e-07L 5.45071 1.30061C 2.22468 1.3881 -4.7332e-06 3.07559 -4.7332e-06 6.11521C -4.7332e-06 9.19176 2.17233 10.8958 5.45071 10.9298L 5.45071 12.5833ZM 10.7618 6.11521C 10.7618 7.55871 10.0949 8.314 8.2541 8.34899L 8.2541 3.88142C 10.1298 3.93488 10.7618 4.95554 10.7618 6.11521ZM 2.97884 6.11521C 2.97884 4.91958 3.66127 3.93488 5.45071 3.88142L 5.45071 8.34899C 3.73203 8.314 2.97884 7.54024 2.97884 6.11521ZM 20.8393 9.89651C 20.4196 10.1599 19.6838 10.4584 18.7717 10.4584C 17.9128 10.4584 17.1751 10.124 16.9299 9.36868L 22.1538 9.36868C 22.2584 9.01679 22.3108 8.66588 22.3108 8.05057C 22.3108 5.79929 20.5252 4.32371 18.4915 4.32371C 15.8956 4.32371 14.2157 6.18519 14.2157 8.48994C 14.2157 10.9842 15.8956 12.6542 18.4915 12.6542C 19.614 12.6542 20.7356 12.3723 21.5586 11.758L 20.8393 9.89651ZM 18.4043 6.51861C 19.2447 6.51861 19.6838 7.0649 19.6838 7.61023L 16.8426 7.61023C 17.0879 6.90646 17.527 6.51861 18.4043 6.51861ZM 22.9903 14.1998L 25.4428 14.1998L 25.4428 12.4423L 30.245 12.4423L 30.245 14.1998L 32.6985 14.1998L 32.6985 9.98399L 31.384 9.98399L 31.384 4.53561L 25.1297 4.53561L 25.0221 6.23769C 24.9368 7.62675 24.6033 9.19176 24.0062 9.98399L 22.9903 9.98399L 22.9903 14.1998ZM 27.5473 7.30986L 27.5822 6.99395L 28.757 6.99395L 28.757 9.98399L 26.7582 9.98399C 27.0742 9.49116 27.3893 8.62992 27.5473 7.30986ZM 39.9948 9.89651C 39.5751 10.1599 38.8384 10.4584 37.9262 10.4584C 37.0664 10.4584 36.3297 10.124 36.0844 9.36868L 41.3083 9.36868C 41.413 9.01679 41.4653 8.66588 41.4653 8.05057C 41.4653 5.79929 39.6798 4.32371 37.6461 4.32371C 35.0521 4.32371 33.3702 6.18519 33.3702 8.48994C 33.3702 10.9842 35.0521 12.6542 37.6461 12.6542C 38.7686 12.6542 39.8892 12.3723 40.7131 11.758L 39.9948 9.89651ZM 37.5588 6.51861C 38.3993 6.51861 38.8384 7.0649 38.8384 7.61023L 35.9972 7.61023C 36.2434 6.90646 36.6816 6.51861 37.5588 6.51861ZM 42.8515 15.9573L 45.4785 15.9573L 45.4785 12.4073C 45.8469 12.5648 46.4081 12.6542 46.9519 12.6542C 49.511 12.6542 51.1929 10.7733 51.1929 8.36552C 51.1929 6.02675 49.7922 4.32371 47.6722 4.32371C 46.7057 4.32371 45.9166 4.69212 45.4785 5.13149L 45.4785 4.53561L 42.8515 4.53561L 42.8515 15.9573ZM 46.8463 6.78204C 47.8457 6.78204 48.3905 7.5033 48.3905 8.41801C 48.3905 9.3852 47.8457 10.1949 46.7057 10.1949C 46.1445 10.1949 45.8643 10.124 45.4785 9.89553L 45.4785 7.48581C 45.9166 6.99395 46.3383 6.78204 46.8463 6.78204ZM 53.5 7.01144C 53.9905 6.818 54.5856 6.51861 55.5153 6.51861C 56.2171 6.51861 56.6562 6.92396 56.6039 7.87366C 56.3586 7.68119 55.7605 7.43526 55.0597 7.43526C 53.5 7.43526 52.2223 8.26151 52.2223 10.054C 52.2223 11.652 53.2896 12.5483 54.7078 12.5483C 55.5676 12.5483 56.3935 12.2664 56.7774 11.722L 56.7774 12.4423L 59.0554 12.4423L 59.0554 7.68119C 59.0554 5.53586 58.18 4.32371 55.7789 4.32371C 54.6729 4.32371 53.4825 4.70961 52.8515 5.09649L 53.5 7.01144ZM 55.6025 10.3534C 55.1643 10.3534 54.8493 10.1415 54.8493 9.79055C 54.8493 9.40367 55.1643 9.19274 55.6025 9.19274C 56.0406 9.19274 56.3586 9.28022 56.6039 9.45616L 56.6039 9.949C 56.4449 10.1599 56.1298 10.3534 55.6025 10.3534ZM 60.8031 12.4423L 67.1989 12.4423L 67.1989 14.1998L 69.6514 14.1998L 69.6514 9.98399L 68.335 9.98399L 68.335 4.53561L 65.71 4.53561L 65.71 9.98399L 63.4281 9.98399L 63.4281 4.53561L 60.8031 4.53561L 60.8031 12.4423ZM 73.5182 12.4423L 76.3235 8.31205L 76.3235 12.4423L 78.9515 12.4423L 78.9515 4.53561L 76.3235 4.53561L 73.5182 8.66491L 73.5182 4.53561L 70.8912 4.53561L 70.8912 12.4423L 73.5182 12.4423ZM 84.8113 4.53561C 81.7956 4.53561 80.5878 5.88677 80.5878 7.50427C 80.5878 8.83988 81.3409 9.54365 81.9022 9.84207L 80.0275 12.4423L 83.0209 12.4423L 84.2684 10.4214L 84.8995 10.4214L 84.8995 12.4423L 87.5264 12.4423L 87.5264 4.53561L 84.8113 4.53561ZM 83.3902 7.71521C 83.3902 7.29237 83.7595 6.818 84.3915 6.818L 84.8995 6.818L 84.8995 8.48994L 84.4264 8.48994C 83.8467 8.48994 83.3902 8.13708 83.3902 7.71521Z" transform="translate(132.434 13.2715)" fill="#231F20"/>
</g>
<g id="Vector_4">
<path d="M 43.6864 -1.11243e-07C 41.1583 -1.11243e-07 38.1349 1.25298 37.1102 4.05931C 36.1166 6.18519 36.1671 23.064 35.6291 23.064L 35.6281 23.064L 30.1027 24.56C 29.3573 24.5075 22.0638 14.9969 20.0582 11.7104L 18.3551 9.86345C 17.6193 9.52518 16.681 9.35896 15.6883 9.35896C 12.5816 9.35701 8.91834 10.9842 9.09573 14.055C 9.37006 15.5092 10.763 15.8601 13.5848 17.534L 15.6583 18.8637C 17.2839 19.9738 19.2139 21.4747 21.521 23.6482C 25.6747 28.0079 28.86 31.5442 28.4703 35.377C 28.1078 38.9629 18.7884 46.5732 9.09864 54.4818L 6.31076 56.7603C 5.00406 57.8315 3.70609 58.8998 2.4372 59.9603C -3.22872 63.9564 2.06205 67.2634 7.36155 67.4014C 7.48368 67.4043 7.60679 67.4072 7.72796 67.4072C 7.97321 67.4072 8.21458 67.3995 8.45692 67.3859C 8.45692 67.3859 8.46855 67.3868 8.49085 67.3868C 8.6663 67.3868 9.47863 67.3343 10.763 66.4546C 10.9647 66.234 11.1673 66.0065 11.3679 65.7829C 19.1209 57.2172 26.3659 47.6016 30.0329 47.6016C 30.2675 47.6016 30.4866 47.6395 30.6921 47.7212C 34.0771 49.0713 32.1355 67.6522 32.3458 79.3101C 32.3546 79.7106 32.3565 80.1266 32.3691 80.5086C 32.3691 80.5086 32.3827 82.9825 35.2423 82.9825L 38.9491 82.9825C 41.5848 82.8931 44.1778 82.443 43.7416 80.5086C 43.6903 80.1976 43.6253 79.8603 43.5439 79.5016C 43.4479 79.0797 43.3297 78.6296 43.1726 78.1135C 40.726 64.4901 39.6684 42.2708 40.1792 36.1702C 40.8762 27.9029 41.7583 15.2185 46.9192 4.12055C 48.634 1.50766 46.4588 -1.11243e-07 43.6864 -1.11243e-07ZM 34.3922 13.3677C 33.8164 10.8511 31.8379 9.09261 29.7518 9.09261C 29.4833 9.09261 29.2119 9.12178 28.9424 9.18204C 26.5849 9.71765 25.2007 12.4559 25.854 15.3002C 26.4289 17.8188 28.4102 19.5772 30.4915 19.5772C 30.7619 19.5772 31.0324 19.5461 31.3038 19.4858C 33.6613 18.9502 35.0426 16.212 34.3922 13.3677Z" fill="#BBBDC0"/>
</g>
<g id="Vector_5">
<path d="M 53.4746 80.5546C 53.2119 79.7838 51.8752 77.1893 51.6445 76.7665C 43.5086 61.8056 32.6508 44.328 32.9717 36.4738C 33.2228 30.3771 38.34 20.3736 41.5622 14.3381C 45.8157 6.38184 48.845 5.51186 49.4818 2.99715C 49.6059 1.20273 46.8907 0.0547312 44.1116 0.0547312C 42.0139 0.0547312 39.8813 0.707953 38.9042 2.23019C 37.2757 4.7692 31.6718 20.3163 31.0863 20.3163L 23.2141 20.3182C 22.7576 20.3182 18.4594 7.80202 14.5965 2.45668C 13.4536 0.919861 11.2357 -0.0191449 8.75127 0.000296246C 6.47037 0.0177933 3.68539 1.43408 3.70866 2.74052C 3.78136 5.27273 6.29782 4.42218 12.4106 14.7493C 17.0432 22.5831 20.9322 29.7404 20.8906 36.6186C 20.8469 44.8918 10.2896 63.8391 2.69955 76.82L 2.56481 77.0474C 1.5053 78.5901 0.751141 79.638 0.329469 80.5546C 0.329469 80.5546 -0.995646 82.9906 1.66913 82.9906L 7.38544 82.9906C 10.5814 82.9021 13.0135 82.4521 13.9247 80.5546C 14.1661 79.9412 14.4094 79.3026 14.6537 78.6533C 19.0216 67.0304 23.441 50.762 27.1294 50.7125L 27.1497 50.7125C 30.8663 50.7125 35.6374 66.0768 40.301 78.6688C 40.4988 79.2025 40.6985 79.7371 40.8953 80.261C 40.9282 80.3466 41.1153 80.7549 41.1589 80.8336C 42.0711 82.524 44.2628 82.8934 47.0517 82.9779C 47.0517 82.9779 50.6994 82.9779 52.0351 82.9488C 54.4905 82.9128 53.4863 80.6829 53.4746 80.5546ZM 32.1739 9.88028C 32.1458 6.53543 29.9531 3.84478 27.2622 3.84478L 27.2118 3.84478C 24.5034 3.88074 22.3301 6.64139 22.3572 10.0105C 22.3853 13.3544 24.5751 16.0392 27.2622 16.0392L 27.3184 16.0392C 30.0249 16.0042 32.2001 13.2485 32.1739 9.88028Z" transform="translate(34.6602 0.00976562)" fill="#AB132D"/>
</g>
<g id="Vector_6">
<path d="M 45.172 59.9244C 43.6918 58.6898 42.1767 57.4378 40.6499 56.1897L 38.3642 54.3273C 28.7346 46.4643 19.5062 38.9124 19.1427 35.3459C 18.7463 31.5102 21.9393 27.9729 26.0853 23.6132C 28.1558 21.6681 29.9366 20.247 31.4517 19.1709L 33.5135 17.809C 36.6882 15.8581 38.2246 15.5626 38.5144 14.0209C 38.6889 10.9531 35.0306 9.32494 31.9247 9.32494C 30.7053 9.32494 29.5682 9.5767 28.7869 10.0919C 28.3497 10.3291 27.2476 12.1643 27.2476 12.1643C 24.8862 15.8183 18.2248 24.4783 17.5065 24.5289L 11.983 23.0309L 11.9821 23.0309C 11.446 23.0309 11.6767 6.10937 10.687 3.98446C 9.70214 1.28311 6.51004 -1.40908e-07 3.86853 -1.40908e-07C 1.01958 -1.40908e-07 -1.18765 1.49113 0.706476 4.30135C 5.86638 15.3906 6.73784 27.8718 7.43481 36.1401C 7.94275 42.2125 6.89681 64.2461 4.47244 77.8899C 4.46081 77.954 3.91118 80.2685 3.83654 80.4756C 3.67272 80.9383 3.02616 82.8552 6.71651 82.8552L 8.60192 82.86C 9.8078 82.8561 10.8809 82.8639 11.7271 82.827C 14.0216 82.723 15.2207 82.0182 15.2469 80.3822C 15.275 79.5181 15.2837 78.6005 15.2857 77.6566C 15.3147 65.9715 13.6862 48.978 16.921 47.6891C 17.1255 47.6065 17.3446 47.5676 17.5801 47.5676C 21.253 47.5676 28.5281 57.2308 36.2965 65.815C 36.2965 65.815 37.7932 67.2381 38.4214 67.2925C 38.907 67.3528 39.4053 67.381 39.9035 67.381C 45.3106 67.381 50.9639 64.0099 45.172 59.9244ZM 21.76 15.2691C 22.4105 12.4209 21.0272 9.68168 18.6668 9.15094C 18.3973 9.0897 18.1268 9.06054 17.8583 9.06054C 15.7732 9.06054 13.7909 10.818 13.218 13.3356C 12.5666 16.177 13.9489 18.9152 16.3103 19.4538C 16.5788 19.514 16.8492 19.5442 17.1187 19.5442C 19.1999 19.5442 21.1803 17.7847 21.76 15.2691Z" transform="translate(75.3364 0.12793)" fill="#EF3F50"/>
</g>
</g>
</g>
</g>
</g>
</svg>

