<svg width="270" height="67" viewBox="0 0 270 67" version="1.1" xmlns="http://www.w3.org/2000/svg" xmlns:xlink="http://www.w3.org/1999/xlink">
<g data-name="Canvas" fill="none">
<g data-name="&#208;&#155;&#208;&#190;&#208;&#179;&#208;&#190;">
<g data-name="Group">
<g data-name="Group">
<g data-name="Group">
<g data-name="Group">
<g data-name="Group">
<g data-name="Vector">
<path d="M 15.4756 -3.92661e-08C 14.58 -3.92661e-08 13.509 0.442272 13.146 1.43284C 12.7941 2.18322 12.8119 8.14103 12.6213 8.14103L 12.621 8.14103L 10.6637 8.66908C 10.3996 8.65055 7.81595 5.29354 7.10547 4.13348L 6.50214 3.48156C 6.24151 3.36216 5.90911 3.30349 5.55748 3.30349C 4.45692 3.3028 3.15925 3.87717 3.22209 4.96106C 3.31927 5.47436 3.81272 5.59822 4.81233 6.18906L 5.54683 6.65844C 6.1227 7.05027 6.80638 7.58004 7.62365 8.34724C 9.09507 9.8861 10.2234 11.1343 10.0854 12.4872C 9.95697 13.753 6.65564 16.4392 3.22312 19.2308L 2.23554 20.035C 1.77265 20.4131 1.31285 20.7902 0.863358 21.1645C -1.14375 22.5751 0.730467 23.7423 2.60777 23.7911C 2.65104 23.7921 2.69465 23.7931 2.73757 23.7931C 2.82445 23.7931 2.90995 23.7904 2.9958 23.7856C 2.9958 23.7856 2.99992 23.7859 3.00782 23.7859C 3.06997 23.7859 3.35773 23.7674 3.81272 23.4569C 3.88415 23.379 3.95592 23.2987 4.027 23.2198C 6.77342 20.1963 9.3399 16.8022 10.6389 16.8022C 10.722 16.8022 10.7996 16.8156 10.8724 16.8444C 12.0716 17.321 11.3838 23.8796 11.4583 27.9945C 11.4614 28.1359 11.462 28.2828 11.4665 28.4176C 11.4665 28.4176 11.4713 29.2908 12.4843 29.2908L 13.7974 29.2908C 14.7311 29.2593 15.6497 29.1004 15.4951 28.4176C 15.4769 28.3078 15.4539 28.1887 15.4251 28.0621C 15.3911 27.9132 15.3492 27.7544 15.2936 27.5722C 14.4269 22.7634 14.0522 14.9206 14.2332 12.7672C 14.4801 9.84904 14.7926 5.37177 16.6208 1.45445C 17.2282 0.532167 16.4577 -3.92661e-08 15.4756 -3.92661e-08ZM 12.1832 4.71848C 11.9792 3.83016 11.2783 3.20947 10.5394 3.20947C 10.4442 3.20947 10.3481 3.21977 10.2526 3.24104C 9.41751 3.4301 8.92715 4.39664 9.1586 5.40059C 9.36222 6.28959 10.0641 6.91028 10.8014 6.91028C 10.8972 6.91028 10.993 6.8993 11.0891 6.87803C 11.9242 6.68898 12.4136 5.72243 12.1832 4.71848Z" transform="scale(2.28692)" fill="#ACB3BF"/>
</g>
</g>
<g data-name="Group">
<g data-name="Vector">
<path d="M 18.943 28.4338C 18.8499 28.1617 18.3764 27.246 18.2947 27.0967C 15.4126 21.8159 11.5663 15.6467 11.68 12.8744C 11.7689 10.7224 13.5817 7.1914 14.7231 5.06101C 16.2299 2.25264 17.303 1.94555 17.5286 1.05792C 17.5725 0.424534 16.6107 0.0193188 15.6262 0.0193188C 14.8831 0.0193188 14.1277 0.24989 13.7815 0.787204C 13.2046 1.68341 11.2195 7.17115 11.0121 7.17115L 8.22343 7.17184C 8.06169 7.17184 6.53911 2.75392 5.1707 0.86715C 4.76585 0.324689 3.98018 -0.00675768 3.10007 0.000104568C 2.29208 0.00628059 1.30552 0.506195 1.31376 0.967338C 1.33952 1.86115 2.23095 1.56092 4.39636 5.20615C 6.03742 7.97129 7.41509 10.4976 7.40033 12.9255C 7.38487 15.8457 3.64503 22.5337 0.956297 27.1156L 0.908566 27.1959C 0.533242 27.7404 0.266086 28.1103 0.116712 28.4338C 0.116712 28.4338 -0.3527 29.2937 0.591275 29.2937L 2.61624 29.2937C 3.74839 29.2624 4.60995 29.1036 4.93274 28.4338C 5.01824 28.2173 5.10443 27.9919 5.19097 27.7627C 6.73827 23.6601 8.30378 17.9178 9.61037 17.9003L 9.61759 17.9003C 10.9341 17.9003 12.6243 23.3235 14.2763 27.7682C 14.3464 27.9566 14.4171 28.1453 14.4868 28.3302C 14.4985 28.3604 14.5648 28.5045 14.5802 28.5323C 14.9034 29.129 15.6798 29.2594 16.6677 29.2892C 16.6677 29.2892 17.9599 29.2892 18.4331 29.2789C 19.3029 29.2662 18.9471 28.4791 18.943 28.4338ZM 11.3974 3.4875C 11.3874 2.30685 10.6107 1.35711 9.65742 1.35711L 9.63956 1.35711C 8.68014 1.36981 7.91026 2.34425 7.91987 3.53348C 7.92983 4.71378 8.70555 5.66146 9.65742 5.66146L 9.67734 5.66146C 10.6361 5.64911 11.4066 4.67638 11.3974 3.4875Z" transform="translate(28.0796 0.00762939) scale(2.28692)" fill="#112E71"/>
</g>
</g>
<g data-name="Group">
<g data-name="Vector">
<path d="M 16.0018 21.1519C 15.4775 20.7161 14.9408 20.2742 14.3999 19.8336L 13.5902 19.1762C 10.179 16.4008 6.90994 13.7351 6.78117 12.4763C 6.64072 11.1223 7.77185 9.87375 9.24052 8.33489C 9.974 7.64832 10.6048 7.14669 11.1415 6.76686L 11.8719 6.28616C 12.9965 5.59754 13.5408 5.49323 13.6434 4.94905C 13.7053 3.86619 12.4093 3.29148 11.3091 3.29148C 10.8771 3.29148 10.4743 3.38034 10.1975 3.56219C 10.0427 3.64591 9.65224 4.29371 9.65224 4.29371C 8.81575 5.58347 6.45598 8.64026 6.20153 8.6581L 4.2449 8.12936L 4.24456 8.12936C 4.05467 8.12936 4.13639 2.15646 3.78579 1.40642C 3.43691 0.452908 2.30613 -4.97371e-08 1.3704 -4.97371e-08C 0.361179 -4.97371e-08 -0.420717 0.526335 0.250264 1.51827C 2.07812 5.4325 2.38683 9.83806 2.63372 12.7566C 2.81366 14.9 2.44314 22.6773 1.58433 27.4933C 1.58021 27.5159 1.38551 28.3329 1.35907 28.4059C 1.30103 28.5693 1.07199 29.2459 2.37927 29.2459L 3.04717 29.2476C 3.47434 29.2462 3.85447 29.249 4.15425 29.2359C 4.96705 29.1992 5.39182 28.9505 5.40109 28.373C 5.41105 28.068 5.41414 27.7441 5.41483 27.4109C 5.42513 23.2864 4.84824 17.2881 5.99412 16.8331C 6.06658 16.8039 6.14418 16.7902 6.22763 16.7902C 7.52873 16.7902 10.1059 20.2011 12.8578 23.2311C 12.8578 23.2311 13.388 23.7334 13.6105 23.7526C 13.7825 23.7739 13.959 23.7839 14.1355 23.7839C 16.0509 23.7839 18.0536 22.594 16.0018 21.1519ZM 7.70832 5.38961C 7.93873 4.38429 7.44872 3.4174 6.61257 3.23006C 6.5171 3.20844 6.4213 3.19815 6.32618 3.19815C 5.58755 3.19815 4.88532 3.8185 4.68238 4.70716C 4.45162 5.71008 4.94129 6.67662 5.77779 6.86671C 5.87291 6.88798 5.96871 6.89862 6.06418 6.89862C 6.80143 6.89862 7.50297 6.27759 7.70832 5.38961Z" transform="translate(61.0317 0.103577) scale(2.28692)" fill="#FF006D"/>
</g>
</g>
</g>
<g data-name="Group">
<g data-name="Vector">
<path d="M 4.16871 4.92332L 3.17979 4.92332L 3.17979 3.75467L 0.988929 3.75467L 0.988929 4.92332L 1.00602e-05 4.92332L 1.00602e-05 2.92263L 0.312463 2.92263C 0.535666 2.54246 0.721133 2.10293 0.865356 1.60404C 1.01301 1.10481 1.10567 0.57025 1.15031 -3.18317e-06L 3.65363 -3.18317e-06L 3.65363 2.92263L 4.16871 2.92263L 4.16871 4.92332ZM 2.63377 2.92263L 2.63377 0.829653L 1.96418 0.829653C 1.89207 1.56254 1.6998 2.26008 1.38731 2.92263L 2.63377 2.92263Z" transform="translate(108.3 17.2136) scale(3.15845)" fill="#112E71"/>
</g>
<g data-name="Vector">
<path d="M 2.05689 2.96105L 1.86458 2.57608L 1.84404 2.57608C 1.70668 2.74386 1.56926 2.85848 1.42847 2.92024C 1.28768 2.98166 1.10574 3.01253 0.885969 3.01253C 0.611258 3.01253 0.394877 2.93052 0.236918 2.76617C 0.0789592 2.60148 0 2.37056 0 2.07274C 0 1.76257 0.109868 1.53199 0.326202 1.38034C 0.539103 1.22903 0.85158 1.14358 1.26365 1.12506L 1.74788 1.10962L 1.74788 1.06845C 1.74788 0.828614 1.63112 0.708877 1.39418 0.708877C 1.18128 0.708877 0.909963 0.780919 0.583744 0.924683L 0.295351 0.262144C 0.631872 0.0874995 1.0611 -7.20402e-06 1.57962 -7.20402e-06C 1.95048 -7.20402e-06 2.24237 0.0926404 2.44497 0.277578C 2.651 0.462172 2.75398 0.720883 2.75398 1.05302L 2.75398 2.96105L 2.05689 2.96105ZM 1.31177 2.30367C 1.43195 2.30367 1.53837 2.26523 1.62422 2.18803C 1.71007 2.11117 1.75475 2.01098 1.75475 1.8878L 1.75475 1.66169L 1.52119 1.672C 1.19153 1.684 1.02673 1.80546 1.02673 2.03672C 1.02673 2.2148 1.11947 2.30367 1.31177 2.30367Z" transform="translate(122.367 19.7202) scale(3.15845)" fill="#112E71"/>
</g>
<g data-name="Vector">
<path d="M 3.22786 2.90959L 2.22175 2.90959L 2.22175 0.747293L 1.63114 0.747293C 1.57619 1.3721 1.50404 1.83152 1.41819 2.12523C 1.33235 2.41859 1.21559 2.63134 1.06449 2.76343C 0.913404 2.89519 0.710794 2.96106 0.453253 2.96106C 0.274691 2.96106 0.12366 2.93533 4.02408e-05 2.88421L 4.02408e-05 2.13656C 0.0549824 2.16744 0.130498 2.18288 0.226647 2.18288C 0.302192 2.18288 0.364015 2.14307 0.41209 2.06347C 0.460164 1.98387 0.504761 1.85693 0.5391 1.68229C 0.576873 1.50764 0.611228 1.28323 0.642133 1.00909C 0.669604 0.735284 0.700509 0.399041 0.72798 1.17275e-06L 3.22786 1.17275e-06L 3.22786 2.90959Z" transform="translate(132.258 19.8828) scale(3.15845)" fill="#112E71"/>
</g>
<g data-name="Vector">
<path d="M 1.00612 1.17275e-06L 1.00612 1.04787L 1.09884 1.04787C 1.60706 1.04787 1.97103 1.11785 2.19767 1.25853C 2.4243 1.39886 2.53762 1.62806 2.53762 1.94647C 2.53762 2.28066 2.42775 2.52462 2.21142 2.67868C 1.99165 2.83274 1.66203 2.90959 1.2225 2.90959L 1.34136e-05 2.90959L 1.34136e-05 1.17275e-06L 1.00612 1.17275e-06ZM 1.53151 1.99041C 1.53151 1.88919 1.50405 1.81643 1.4491 1.77217C 1.39073 1.72756 1.29799 1.70526 1.16406 1.70526L 1.00612 1.70526L 1.00612 2.2522L 1.17438 2.2522C 1.41475 2.2522 1.53151 2.16505 1.53151 1.99041Z" transform="translate(144.644 19.8828) scale(3.15845)" fill="#112E71"/>
</g>
<g data-name="Vector">
<path d="M 1.00617 1.17275e-06L 1.00617 1.04787L 1.80277 1.04787L 1.80277 1.17275e-06L 2.80896 1.17275e-06L 2.80896 2.90959L 1.80277 2.90959L 1.80277 1.79516L 1.00617 1.79516L 1.00617 2.90959L -2.34738e-05 2.90959L -2.34738e-05 1.17275e-06L 1.00617 1.17275e-06Z" transform="translate(154.286 19.8828) scale(3.15845)" fill="#112E71"/>
</g>
<g data-name="Vector">
<path d="M 1.5315 3.01253C 1.04733 3.01253 0.669584 2.88385 0.401741 2.62617C 0.133898 2.36849 3.3534e-06 2.00138 3.3534e-06 1.52549C 3.3534e-06 1.03415 0.123653 0.657069 0.374327 0.394245C 0.621567 0.131421 0.975207 -7.20402e-06 1.43878 -7.20402e-06C 1.87488 -7.20402e-06 2.21483 0.114257 2.4552 0.34277C 2.69214 0.571626 2.81234 0.900668 2.81234 1.33024L 2.81234 1.77731L 1.01642 1.77731C 1.02329 1.93995 1.08167 2.0676 1.19499 2.1599C 1.30487 2.25254 1.45942 2.29852 1.65172 2.29852C 1.83028 2.29852 1.99165 2.28205 2.13931 2.24842C 2.28696 2.21514 2.44832 2.15818 2.62002 2.07789L 2.62002 2.79945C 2.46549 2.87973 2.30069 2.93567 2.13243 2.96621C 1.96417 2.99709 1.76501 3.01253 1.5315 3.01253ZM 1.47315 0.683139C 1.35297 0.683139 1.25678 0.720535 1.17437 0.79499C 1.09539 0.869445 1.05078 0.986102 1.03704 1.14531L 1.89895 1.14531C 1.89552 1.00497 1.85771 0.892782 1.77873 0.809063C 1.70319 0.725 1.60021 0.683139 1.47315 0.683139Z" transform="translate(164.947 19.7202) scale(3.15845)" fill="#112E71"/>
</g>
<g data-name="Vector">
<path d="M 2.85353 0.752444C 2.85353 0.921942 2.80548 1.06227 2.7059 1.17344C 2.60631 1.28495 2.46898 1.35495 2.29728 1.38412L 2.29728 1.4047C 2.50675 1.42872 2.66467 1.50009 2.77799 1.61915C 2.88788 1.73821 2.94281 1.89089 2.94281 2.07754C 2.94281 2.63236 2.49299 2.90959 1.58645 2.90959L 3.3534e-05 2.90959L 3.3534e-05 1.17275e-06L 1.59332 1.17275e-06C 2.01569 1.17275e-06 2.33161 0.0614188 2.54108 0.184939C 2.75054 0.308117 2.85353 0.497169 2.85353 0.752444ZM 1.92296 1.9801C 1.92296 1.88918 1.89205 1.82434 1.83024 1.78488C 1.76843 1.74542 1.67914 1.72585 1.56238 1.72585L 1.00614 1.72585L 1.00614 2.2522L 1.55216 2.2522C 1.7994 2.2522 1.92296 2.16161 1.92296 1.9801ZM 1.8543 0.885907C 1.8543 0.733565 1.76156 0.65741 1.57613 0.65741L 1.00614 0.65741L 1.00614 1.09384L 1.53841 1.09384C 1.64486 1.09384 1.72382 1.07428 1.77533 1.03483C 1.82683 0.99571 1.8543 0.945952 1.8543 0.885907Z" transform="translate(175.62 19.8828) scale(3.15845)" fill="#112E71"/>
</g>
<g data-name="Vector">
<path d="M 2.90506 1.49975C 2.90506 1.97599 2.77805 2.34689 2.52051 2.61315C 2.2664 2.8794 1.9058 3.01253 1.44566 3.01253C 1.00268 3.01253 0.652405 2.87631 0.391429 2.60423C 0.130454 2.33214 3.3534e-06 1.96398 3.3534e-06 1.49975C 3.3534e-06 1.02557 0.127014 0.657069 0.384555 0.394245C 0.638662 0.131421 0.999264 -7.20402e-06 1.4594 -7.20402e-06C 1.74785 -7.20402e-06 1.99851 0.0607386 2.21828 0.182544C 2.43805 0.304005 2.60974 0.478289 2.72649 0.705086C 2.84667 0.931884 2.90506 1.19678 2.90506 1.49975ZM 1.01986 1.49975C 1.01986 1.74988 1.05078 1.94031 1.11945 2.07138C 1.1847 2.20245 1.29801 2.26763 1.45597 2.26763C 1.61049 2.26763 1.7238 2.20245 1.78561 2.07138C 1.85085 1.94031 1.88177 1.74988 1.88177 1.49975C 1.88177 1.25168 1.85085 1.06398 1.78561 0.937374C 1.72036 0.810766 1.60706 0.747305 1.45253 0.747305C 1.29801 0.747305 1.1847 0.810434 1.11945 0.936013C 1.05078 1.06194 1.01986 1.24996 1.01986 1.49975Z" transform="translate(186.368 19.7202) scale(3.15845)" fill="#112E71"/>
</g>
<g data-name="Vector">
<path d="M 1.45253 3.01253C 0.978657 3.01253 0.614699 2.88421 0.370893 2.62722C 0.123653 2.37057 6.70681e-06 2.00138 6.70681e-06 1.52033C 6.70681e-06 1.03758 0.133898 0.663584 0.398307 0.398015C 0.66615 0.132789 1.0439 -7.20402e-06 1.53494 -7.20402e-06C 1.87146 -7.20402e-06 2.18739 0.0737767 2.48614 0.220972L 2.19079 0.963112C 2.0706 0.909929 1.95729 0.867728 1.85427 0.836162C 1.75125 0.804252 1.64483 0.788477 1.53494 0.788477C 1.37012 0.788477 1.24303 0.851958 1.15718 0.978567C 1.0679 1.10518 1.0233 1.28427 1.0233 1.51518C 1.0233 1.98113 1.19499 2.21376 1.53838 2.21376C 1.83369 2.21376 2.11526 2.12833 2.38654 1.95712L 2.38654 2.75589C 2.129 2.9271 1.81653 3.01253 1.45253 3.01253Z" transform="translate(196.953 19.7202) scale(3.15845)" fill="#112E71"/>
</g>
<g data-name="Vector">
<path d="M 2.92224 0.747293L 1.96418 0.747293L 1.96418 2.90959L 0.958071 2.90959L 0.958071 0.747293L 3.3534e-06 0.747293L 3.3534e-06 1.17275e-06L 2.92224 1.17275e-06L 2.92224 0.747293Z" transform="translate(205.619 19.8828) scale(3.15845)" fill="#112E71"/>
</g>
<g data-name="Vector">
<path d="M 2.90853 1.49975C 2.90853 1.97599 2.77801 2.34689 2.5239 2.61315C 2.26636 2.8794 1.90927 3.01253 1.44913 3.01253C 1.00616 3.01253 0.652445 2.87631 0.39147 2.60423C 0.130494 2.33214 -4.02408e-05 1.96398 -4.02408e-05 1.49975C -4.02408e-05 1.02557 0.130488 0.657069 0.384595 0.394245C 0.642137 0.131421 0.999224 -7.20402e-06 1.4628 -7.20402e-06C 1.74781 -7.20402e-06 2.00199 0.0607386 2.22176 0.182544C 2.44153 0.304005 2.60978 0.478289 2.72997 0.705086C 2.84672 0.931884 2.90853 1.19678 2.90853 1.49975ZM 1.0199 1.49975C 1.0199 1.74988 1.05417 1.94031 1.11941 2.07138C 1.18809 2.20245 1.3014 2.26763 1.45936 2.26763C 1.61389 2.26763 1.72384 2.20245 1.78908 2.07138C 1.85433 1.94031 1.88524 1.74988 1.88524 1.49975C 1.88524 1.25168 1.85089 1.06398 1.78565 0.937374C 1.7204 0.810766 1.61053 0.747305 1.45257 0.747305C 1.29805 0.747305 1.18809 0.810434 1.11941 0.936013C 1.05417 1.06194 1.0199 1.24996 1.0199 1.49975Z" transform="translate(215.781 19.7202) scale(3.15845)" fill="#112E71"/>
</g>
<g data-name="Vector">
<path d="M 1.0061 1.17275e-06L 1.0061 1.02213C 1.0061 1.22251 1.0954 1.32269 1.28083 1.32269C 1.47656 1.32269 1.69976 1.2798 1.9573 1.19403L 1.9573 1.17275e-06L 2.9634 1.17275e-06L 2.9634 2.90959L 1.9573 2.90959L 1.9573 1.85177C 1.62765 1.99553 1.31862 2.06726 1.03704 2.06726C 0.68335 2.06726 0.422365 1.98662 0.254104 1.82467C 0.0858438 1.66272 0 1.41258 0 1.07359L 0 1.17275e-06L 1.0061 1.17275e-06Z" transform="translate(226.215 19.8828) scale(3.15845)" fill="#112E71"/>
</g>
<g data-name="Vector">
<path d="M 1.00616 1.17275e-06L 1.00616 1.04787L 1.80276 1.04787L 1.80276 1.17275e-06L 2.80895 1.17275e-06L 2.80895 2.90959L 1.80276 2.90959L 1.80276 1.79516L 1.00616 1.79516L 1.00616 2.90959L -3.3534e-05 2.90959L -3.3534e-05 1.17275e-06L 1.00616 1.17275e-06Z" transform="translate(237.766 19.8828) scale(3.15845)" fill="#112E71"/>
</g>
<g data-name="Vector">
<path d="M 2.05686 2.96105L 1.86462 2.57608L 1.844 2.57608C 1.70664 2.74386 1.5693 2.85848 1.42851 2.92024C 1.28772 2.98166 1.1057 3.01253 0.882495 3.01253C 0.611218 3.01253 0.394924 2.93052 0.236965 2.76617C 0.0790062 2.60148 -3.68874e-05 2.37056 -3.68874e-05 2.07274C -3.68874e-05 1.76257 0.106477 1.53199 0.322812 1.38034C 0.539147 1.22903 0.851624 1.14358 1.26026 1.12506L 1.74784 1.10962L 1.74784 1.06845C 1.74784 0.828614 1.63108 0.708877 1.39414 0.708877C 1.18124 0.708877 0.91001 0.780919 0.583791 0.924683L 0.291877 0.262144C 0.631832 0.0874995 1.06107 -7.20402e-06 1.57958 -7.20402e-06C 1.95044 -7.20402e-06 2.2389 0.0926404 2.44493 0.277578C 2.65096 0.462172 2.75395 0.720883 2.75395 1.05302L 2.75395 2.96105L 2.05686 2.96105ZM 1.31173 2.30367C 1.43192 2.30367 1.53499 2.26523 1.62427 2.18803C 1.71012 2.11117 1.75128 2.01098 1.75128 1.8878L 1.75128 1.66169L 1.52123 1.672C 1.19158 1.684 1.02669 1.80546 1.02669 2.03672C 1.02669 2.2148 1.11943 2.30367 1.31173 2.30367Z" transform="translate(248.33 19.7202) scale(3.15845)" fill="#112E71"/>
</g>
<g data-name="Vector">
<path d="M 1.06452 2.90959L -1.6767e-05 2.90959L 0.748547 1.80547C 0.597456 1.72312 0.47734 1.6068 0.391493 1.45618C 0.302212 1.30555 0.257525 1.13089 0.257525 0.932231C 0.257525 0.634409 0.370833 0.404521 0.590602 0.242571C 0.813804 0.0809655 1.12628 1.17275e-06 1.53148 1.17275e-06L 2.92222 1.17275e-06L 2.92222 2.90959L 1.91612 2.90959L 1.91612 1.9005L 1.62077 1.9005L 1.06452 2.90959ZM 1.26363 0.96312C 1.26363 1.05199 1.29454 1.12095 1.35979 1.16967C 1.4216 1.21839 1.51433 1.24309 1.63108 1.24309L 1.91612 1.24309L 1.91612 0.65741L 1.62764 0.65741C 1.51432 0.65741 1.42503 0.683828 1.35979 0.73701C 1.29454 0.790193 1.26363 0.865333 1.26363 0.96312Z" transform="translate(257.885 19.8828) scale(3.15845)" fill="#112E71"/>
</g>
<g data-name="Vector">
<path d="M 4.1207 2.54521C 4.1207 2.96655 3.98328 3.30281 3.70857 3.55465C 3.43386 3.80615 3.04242 3.95335 2.53764 3.99623L 2.53764 5.25991L 1.59676 5.25991L 1.59676 3.99623C 1.10228 3.94477 0.710848 3.79106 0.425835 3.53509C 0.144257 3.27913 3.68874e-05 2.9494 3.68874e-05 2.54521C 3.68874e-05 2.10363 0.133932 1.7581 0.401775 1.509C 0.669618 1.2599 1.06449 1.11889 1.58301 1.08629L 1.58301 -7.37156e-06L 2.53764 -7.37156e-06L 2.53764 1.08629C 3.03899 1.1309 3.43042 1.28152 3.70513 1.53851C 3.97984 1.79516 4.1207 2.13073 4.1207 2.54521ZM 0.99583 2.54521C 0.99583 2.74559 1.05077 2.912 1.16409 3.04478C 1.27741 3.17756 1.41818 3.24549 1.58301 3.24892L 1.58301 1.83394C 1.42505 1.8408 1.28428 1.91354 1.17096 2.05215C 1.05421 2.19077 0.99583 2.35513 0.99583 2.54521ZM 3.11795 2.54521C 3.11795 2.34998 3.06301 2.18426 2.94969 2.04838C 2.83981 1.91217 2.70247 1.8408 2.53764 1.83394L 2.53764 3.24892C 2.7059 3.24549 2.84324 3.17826 2.95313 3.04719C 3.06301 2.91646 3.11795 2.74902 3.11795 2.54521Z" transform="translate(108.929 37.1808) scale(3.15845)" fill="#112E71"/>
</g>
<g data-name="Vector">
<path d="M 0.892847 -2.01042e-06L 0.892847 0.732211C 0.892847 0.773042 0.892847 0.817638 0.892847 0.865674C 0.892847 0.91371 0.879078 1.21839 0.858475 1.78006L 2.02253 -2.01042e-06L 3.13166 -2.01042e-06L 3.13166 2.90994L 2.2389 2.90994L 2.2389 2.12146C 2.2389 1.84594 2.24915 1.51964 2.27319 1.1429L 1.11602 2.90994L 3.3534e-06 2.90994L 3.3534e-06 -2.01042e-06L 0.892847 -2.01042e-06Z" transform="translate(123.733 40.6119) scale(3.15845)" fill="#112E71"/>
</g>
<g data-name="Vector">
<path d="M 2.92224 0.747645L 1.96418 0.747645L 1.96418 2.90994L 0.958071 2.90994L 0.958071 0.747645L 3.3534e-06 0.747645L 3.3534e-06 -2.01042e-06L 2.92224 -2.01042e-06L 2.92224 0.747645Z" transform="translate(135.122 40.6119) scale(3.15845)" fill="#112E71"/>
</g>
<g data-name="Vector">
<path d="M 1.00272 -2.01042e-06L 1.00272 1.04787L 1.79932 1.04787L 1.79932 -2.01042e-06L 2.80551 -2.01042e-06L 2.80551 2.90994L 1.79932 2.90994L 1.79932 1.79552L 1.00272 1.79552L 1.00272 2.90994L -3.3534e-05 2.90994L -3.3534e-05 -2.01042e-06L 1.00272 -2.01042e-06Z" transform="translate(145.848 40.6119) scale(3.15845)" fill="#112E71"/>
</g>
<g data-name="Vector">
<path d="M 1.53149 3.01252C 1.04732 3.01252 0.669574 2.88352 0.401731 2.62585C 0.133888 2.36817 -6.70681e-06 2.00137 -6.70681e-06 1.52547C -6.70681e-06 1.03414 0.12364 0.657058 0.37088 0.394234C 0.61812 0.13141 0.975193 2.51303e-06 1.43533 2.51303e-06C 1.87487 2.51303e-06 2.2149 0.114246 2.45183 0.342759C 2.69221 0.571272 2.80889 0.900678 2.80889 1.33025L 2.80889 1.77699L 1.01297 1.77699C 1.01984 1.93962 1.08166 2.06725 1.19154 2.15989C 1.30486 2.25219 1.45598 2.2985 1.65171 2.2985C 1.82684 2.2985 1.99164 2.28169 2.1393 2.24841C 2.28695 2.21513 2.4484 2.15818 2.62009 2.07755L 2.62009 2.79912C 2.46213 2.87975 2.30068 2.93534 2.13242 2.96622C 1.96416 2.9971 1.765 3.01252 1.53149 3.01252ZM 1.46971 0.683128C 1.35295 0.683128 1.25333 0.720188 1.17436 0.794644C 1.09538 0.869099 1.04733 0.986112 1.0336 1.14532L 1.89894 1.14532C 1.89551 1.00498 1.85427 0.892771 1.77872 0.809052C 1.70318 0.724989 1.60019 0.683128 1.46971 0.683128Z" transform="translate(156.509 40.4504) scale(3.15845)" fill="#112E71"/>
</g>
<g data-name="Vector">
<path d="M 1.45251 3.01252C 0.9752 3.01252 0.614676 2.88386 0.37087 2.62721C 0.12363 2.37022 -1.6767e-05 2.00137 -1.6767e-05 1.52032C -1.6767e-05 1.03756 0.133958 0.66323 0.398368 0.398004C 0.666211 0.132778 1.04387 2.51303e-06 1.53148 2.51303e-06C 1.87144 2.51303e-06 2.18737 0.0734224 2.48611 0.220961L 2.19085 0.963121C 2.06723 0.909939 1.95735 0.867382 1.85433 0.835815C 1.75132 0.804249 1.6448 0.788466 1.53148 0.788466C 1.37009 0.788466 1.24309 0.851604 1.15381 0.978556C 1.06452 1.10516 1.01984 1.28393 1.01984 1.51519C 1.01984 1.9808 1.19497 2.21375 1.53836 2.21375C 1.83367 2.21375 2.11524 2.12799 2.38652 1.95677L 2.38652 2.75554C 2.12554 2.92675 1.8165 3.01252 1.45251 3.01252Z" transform="translate(166.78 40.4504) scale(3.15845)" fill="#112E71"/>
</g>
<g data-name="Vector">
<path d="M 1.45215 -9.04691e-06L -3.68874e-05 -9.04691e-06L -3.68874e-05 0.801166L 1.45215 0.801166L 1.45215 -9.04691e-06Z" transform="translate(175.392 44.084) scale(3.15845)" fill="#112E71"/>
</g>
<g data-name="Vector">
<path d="M 2.05689 2.96106L 1.86458 2.57575L 1.84404 2.57575C 1.70668 2.74354 1.56926 2.85848 1.42847 2.91989C 1.28768 2.98165 1.10573 3.01252 0.882532 3.01252C 0.611255 3.01252 0.394877 2.93017 0.236918 2.76582C 0.0789592 2.60147 0 2.37022 0 2.07239C 0 1.76256 0.10643 1.532 0.322765 1.38035C 0.5391 1.22869 0.851577 1.1436 1.26021 1.12473L 1.74788 1.10928L 1.74788 1.06846C 1.74788 0.828624 1.62768 0.708866 1.39418 0.708866C 1.18128 0.708866 0.909963 0.780573 0.583744 0.924337L 0.291914 0.261797C 0.631868 0.0871532 1.0611 2.51303e-06 1.57618 2.51303e-06C 1.95048 2.51303e-06 2.23893 0.0922941 2.44497 0.277232C 2.651 0.462169 2.75055 0.720871 2.75055 1.053L 2.75055 2.96106L 2.05689 2.96106ZM 1.31177 2.30366C 1.43195 2.30366 1.53494 2.26524 1.62078 2.18804C 1.71007 2.11083 1.75132 2.01098 1.75132 1.88746L 1.75132 1.6617L 1.52119 1.67198C 1.19153 1.68365 1.02673 1.80546 1.02673 2.03637C 1.02673 2.21445 1.11947 2.30366 1.31177 2.30366Z" transform="translate(180.934 40.4504) scale(3.15845)" fill="#112E71"/>
</g>
<g data-name="Vector">
<path d="M 2.03627 -2.01042e-06L 3.14885 -2.01042e-06L 2.0569 1.39475L 3.23126 2.90994L 2.0844 2.90994L 1.00267 1.43318L 1.00267 2.90994L 3.3534e-06 2.90994L 3.3534e-06 -2.01042e-06L 1.00267 -2.01042e-06L 1.00267 1.41018L 2.03627 -2.01042e-06Z" transform="translate(191.791 40.6119) scale(3.15845)" fill="#112E71"/>
</g>
<g data-name="Vector">
<path d="M 2.05686 2.96106L 1.86463 2.57575L 1.84401 2.57575C 1.70665 2.74354 1.56931 2.85848 1.42852 2.91989C 1.28773 2.98165 1.1057 3.01252 0.882502 3.01252C 0.607791 3.01252 0.39493 2.93017 0.236972 2.76582C 0.0790129 2.60147 -3.01806e-05 2.37022 -3.01806e-05 2.07239C -3.01806e-05 1.76256 0.106484 1.532 0.322819 1.38035C 0.539154 1.22869 0.85163 1.1436 1.26026 1.12473L 1.74785 1.10928L 1.74785 1.06846C 1.74785 0.828624 1.62765 0.708866 1.39415 0.708866C 1.18125 0.708866 0.910017 0.780573 0.583797 0.924337L 0.291884 0.261797C 0.631838 0.0871532 1.06107 2.51303e-06 1.57959 2.51303e-06C 1.95045 2.51303e-06 2.2389 0.0922941 2.44494 0.277232C 2.65097 0.462169 2.75395 0.720871 2.75395 1.053L 2.75395 2.96106L 2.05686 2.96106ZM 1.31174 2.30366C 1.43192 2.30366 1.53491 2.26524 1.62419 2.18804C 1.71004 2.11083 1.75129 2.01098 1.75129 1.88746L 1.75129 1.6617L 1.52124 1.67198C 1.19159 1.68365 1.02326 1.80546 1.02326 2.03637C 1.02326 2.21445 1.11944 2.30366 1.31174 2.30366Z" transform="translate(202.528 40.4504) scale(3.15845)" fill="#112E71"/>
</g>
<g data-name="Vector">
<path d="M 3.68458 3.9784L 2.80549 3.9784L 2.80549 2.90994L 0.879041 2.90994L 0.879041 3.9784L 3.01806e-05 3.9784L 3.01806e-05 2.16263L 0.257572 2.16263C 0.408663 1.90907 0.532232 1.59272 0.635249 1.21358C 0.738265 0.834443 0.806983 0.429918 0.84819 -2.01042e-06L 3.25191 -2.01042e-06L 3.25191 2.16263L 3.68458 2.16263L 3.68458 3.9784ZM 2.24916 2.16263L 2.24916 0.747645L 1.67573 0.747645C 1.64482 0.97856 1.60022 1.20365 1.54872 1.4229C 1.49377 1.64215 1.41817 1.88848 1.31859 2.16263L 2.24916 2.16263Z" transform="translate(212.484 40.6119) scale(3.15845)" fill="#112E71"/>
</g>
<g data-name="Vector">
<path d="M 1.53155 3.01252C 1.04737 3.01252 0.669631 2.88352 0.401788 2.62585C 0.133945 2.36817 -3.3534e-05 2.00137 -3.3534e-05 1.52547C -3.3534e-05 1.03414 0.123617 0.657058 0.37429 0.394234C 0.62153 0.13141 0.97525 2.51303e-06 1.43539 2.51303e-06C 1.87493 2.51303e-06 2.21487 0.114246 2.45181 0.342759C 2.69218 0.571272 2.81238 0.900678 2.81238 1.33025L 2.81238 1.77699L 1.01647 1.77699C 1.02333 1.93962 1.08163 2.06725 1.19495 2.15989C 1.30484 2.25219 1.45939 2.2985 1.65169 2.2985C 1.83025 2.2985 1.99161 2.28169 2.13927 2.24841C 2.28693 2.21513 2.44837 2.15818 2.62006 2.07755L 2.62006 2.79912C 2.46554 2.87975 2.30074 2.93534 2.13248 2.96622C 1.96422 2.9971 1.76505 3.01252 1.53155 3.01252ZM 1.47312 0.683128C 1.35293 0.683128 1.25683 0.720188 1.17441 0.794644C 1.09543 0.869099 1.05074 0.986112 1.03701 1.14532L 1.89892 1.14532C 1.89548 1.00498 1.85433 0.892771 1.77878 0.809052C 1.70323 0.724989 1.60017 0.683128 1.47312 0.683128Z" transform="translate(225.022 40.4504) scale(3.15845)" fill="#112E71"/>
</g>
<g data-name="Vector">
<path d="M 3.82875 2.90994L 2.92911 2.90994L 2.92911 0.737342C 2.87417 0.957963 2.81234 1.18614 2.74023 1.42151C 2.67155 1.65723 2.51019 2.15303 2.25952 2.90994L 1.57618 2.90994L 1.27395 1.9801C 1.17437 1.66855 1.06795 1.31859 0.958064 0.92984L 0.899715 0.737342L 0.899715 2.90994L -3.3534e-06 2.90994L -3.3534e-06 -2.01042e-06L 1.37699 -2.01042e-06L 1.60359 0.680736C 1.6448 0.810776 1.70318 1.01767 1.77873 1.30108C 1.85427 1.58449 1.9024 1.78076 1.91957 1.89022C 1.92987 1.80993 1.98826 1.58209 2.10157 1.20707L 2.20109 0.862931L 2.48269 -2.01042e-06L 3.82875 -2.01042e-06L 3.82875 2.90994Z" transform="translate(235.694 40.6119) scale(3.15845)" fill="#112E71"/>
</g>
<g data-name="Vector">
<path d="M 0.892814 -2.01042e-06L 0.892814 0.732211C 0.892814 0.773042 0.892814 0.817638 0.892814 0.865674C 0.892814 0.91371 0.879044 1.21839 0.858441 1.78006L 2.02258 -2.01042e-06L 3.13171 -2.01042e-06L 3.13171 2.90994L 2.23887 2.90994L 2.23887 2.12146C 2.23887 1.84594 2.24921 1.51964 2.27324 1.1429L 1.11598 2.90994L -3.01806e-05 2.90994L -3.01806e-05 -2.01042e-06L 0.892814 -2.01042e-06Z" transform="translate(249.978 40.6119) scale(3.15845)" fill="#112E71"/>
</g>
<g data-name="Vector">
<path d="M 1.06105 2.90994L 3.68874e-05 2.90994L 0.745163 1.80546C 0.597506 1.72346 0.477307 1.60713 0.388026 1.45651C 0.302179 1.30554 0.257578 1.1309 0.257578 0.932584C 0.257578 0.634419 0.367453 0.40453 0.590655 0.242924C 0.813858 0.0809752 1.12634 -2.01042e-06 1.53154 -2.01042e-06L 2.92228 -2.01042e-06L 2.92228 2.90994L 1.91609 2.90994L 1.91609 1.9005L 1.62082 1.9005L 1.06105 2.90994ZM 1.26368 0.963117C 1.26368 1.05233 1.2946 1.1213 1.35984 1.17002C 1.42165 1.21874 1.51095 1.24309 1.63113 1.24309L 1.91609 1.24309L 1.91609 0.657742L 1.62426 0.657742C 1.51094 0.657742 1.42509 0.68416 1.35984 0.737342C 1.2946 0.790181 1.26368 0.865673 1.26368 0.963117Z" transform="translate(260.77 40.6119) scale(3.15845)" fill="#112E71"/>
</g>
</g>
</g>
</g>
</g>
</g>
</g>
</svg>

