<svg width="64" height="64" viewBox="0 0 64 64" version="1.1" xmlns="http://www.w3.org/2000/svg" xmlns:xlink="http://www.w3.org/1999/xlink">
<g id="Canvas" fill="none">
<g id="Group 31.1">
<g id="Rectangle 3">
<rect width="64" height="64" fill="black"/>
</g>
<g id="Group 16">
<g id="&#208;&#156;&#208;&#149;&#208;&#157;&#208;&#174;">
<path d="M 2.97641 1.3125L 4.61704 5.67188L 6.25376 1.3125L 7.5311 1.3125L 7.5311 7L 6.54673 7L 6.54673 5.125L 6.64438 2.61719L 4.96469 7L 4.25766 7L 2.58188 2.62109L 2.67954 5.125L 2.67954 7L 1.69516 7L 1.69516 1.3125L 2.97641 1.3125ZM 11.9605 4.46094L 9.62459 4.46094L 9.62459 6.21094L 12.3551 6.21094L 12.3551 7L 8.63631 7L 8.63631 1.3125L 12.3277 1.3125L 12.3277 2.10938L 9.62459 2.10938L 9.62459 3.67969L 11.9605 3.67969L 11.9605 4.46094ZM 17.6087 7L 16.6243 7L 16.6243 4.47266L 14.0814 4.47266L 14.0814 7L 13.0931 7L 13.0931 1.3125L 14.0814 1.3125L 14.0814 3.67969L 16.6243 3.67969L 16.6243 1.3125L 17.6087 1.3125L 17.6087 7ZM 25.1631 4.30469C 25.1631 4.86198 25.0668 5.35156 24.8741 5.77344C 24.6814 6.19271 24.4053 6.51562 24.0459 6.74219C 23.6892 6.96615 23.2777 7.07812 22.8116 7.07812C 22.3767 7.07812 21.9874 6.97917 21.6436 6.78125C 21.2999 6.58333 21.0251 6.29948 20.8194 5.92969C 20.6137 5.5599 20.4926 5.12891 20.4561 4.63672L 19.7452 4.63672L 19.7452 7L 18.7608 7L 18.7608 1.3125L 19.7452 1.3125L 19.7452 3.87109L 20.4444 3.87109C 20.46 3.34766 20.5681 2.88542 20.7686 2.48438C 20.9691 2.08073 21.2452 1.77214 21.5967 1.55859C 21.9509 1.34245 22.3532 1.23438 22.8038 1.23438C 23.2673 1.23438 23.6775 1.34635 24.0342 1.57031C 24.3936 1.79167 24.6709 2.11198 24.8663 2.53125C 25.0616 2.94792 25.1605 3.43359 25.1631 3.98828L 25.1631 4.30469ZM 24.1749 4.00781C 24.1749 3.3776 24.0551 2.89453 23.8155 2.55859C 23.5785 2.22266 23.2413 2.05469 22.8038 2.05469C 22.3767 2.05469 22.042 2.22266 21.7999 2.55859C 21.5603 2.89193 21.4379 3.36458 21.4327 3.97656L 21.4327 4.30469C 21.4327 4.92969 21.5538 5.41276 21.7959 5.75391C 22.0407 6.09505 22.3793 6.26562 22.8116 6.26562C 23.2491 6.26562 23.585 6.09896 23.8194 5.76562C 24.0564 5.43229 24.1749 4.94531 24.1749 4.30469L 24.1749 4.00781Z" transform="translate(18.2856 34.0898)" fill="white"/>
</g>
<g id="Rectangle 3_2">
<rect width="22.272" height="2.0898" transform="translate(20.937 21.0286)" fill="white"/>
</g>
<g id="Rectangle 3.1">
<rect width="22.272" height="2.0898" transform="translate(20.937 27.8204)" fill="white"/>
</g>
</g>
</g>
</g>
</svg>

