<svg width="36" height="34" viewBox="0 0 36 34" version="1.1" xmlns="http://www.w3.org/2000/svg" xmlns:xlink="http://www.w3.org/1999/xlink">
<g id="Canvas" fill="none">
<g id="Group 29.1">
<g id="Vector">
<path d="M -1.0498e-05 -4.39453e-06L 18.484 -4.39453e-06" stroke-width="1.44" stroke-miterlimit="1.41421" stroke-linecap="round" stroke-linejoin="round" transform="translate(8.4834 33.1382)" stroke="#3B4256"/>
</g>
<g id="Group 28">
<g id="Vector_2">
<path d="M 8.05664e-06 -4.88281e-06L 20.246 -4.88281e-06L 20.246 15.614C 20.246 20.55 15.684 24.598 10.123 24.598C 4.56199 24.598 8.05664e-06 20.555 8.05664e-06 15.614L 8.05664e-06 -4.88281e-06Z" stroke-width="1.44" stroke-miterlimit="1.41421" stroke-linecap="round" stroke-linejoin="round" transform="translate(7.60205 1)" stroke="#3B4256"/>
</g>
<g id="Vector_3">
<path d="M -6.10352e-06 1.09863e-05L -6.10352e-06 7.05299" stroke-width="1.44" stroke-miterlimit="1.41421" stroke-linecap="round" stroke-linejoin="round" transform="translate(17.7251 25.6101)" stroke="#3B4256"/>
</g>
<g id="Vector_4">
<path d="M 6.36501 7.56836e-06L -1.2207e-05 7.56836e-06C 1.37999 3.72501 3.60701 6.14601 6.36501 7.54301" stroke-width="1.44" stroke-miterlimit="1.41421" stroke-linecap="round" stroke-linejoin="round" transform="translate(1 3.51904)" stroke="#3B4256"/>
</g>
<g id="Vector_5">
<path d="M 2.68555e-06 7.56836e-06L 6.36499 7.56836e-06C 4.98599 3.72501 2.758 6.14601 2.68555e-06 7.54301" stroke-width="1.44" stroke-miterlimit="1.41421" stroke-linecap="round" stroke-linejoin="round" transform="translate(28.084 3.51904)" stroke="#3B4256"/>
</g>
<g id="Vector_6">
<path d="M 6.57099 1.02539e-05L 8.45799 4.472L 13.141 4.774L 9.47199 7.951L 10.631 12.498L 6.47599 9.99L 2.50999 12.498L 3.611 7.77101L 1.00098e-05 4.774L 4.83601 4.361L 6.57099 1.02539e-05Z" stroke-width="1.44" stroke-miterlimit="1.41421" stroke-linecap="round" stroke-linejoin="round" transform="translate(11.1543 5.02808)" stroke="#3B4256"/>
</g>
</g>
</g>
</g>
</svg>

