<svg width="43" height="48" viewBox="0 0 43 48" version="1.1" xmlns="http://www.w3.org/2000/svg" xmlns:xlink="http://www.w3.org/1999/xlink">
<g id="Canvas" fill="none">
<g id="Group">
<g id="Group_2">
<g id="XMLID 1944">
<path d="M 3.70504 7.41025C 5.75127 7.41025 7.41008 5.75141 7.41008 3.70513C 7.41008 1.65884 5.75127 0 3.70504 0C 1.6588 0 0 1.65884 0 3.70513C 0 5.75141 1.6588 7.41025 3.70504 7.41025Z" transform="translate(17.7998 0.901733)" fill="#3B4256"/>
</g>
<g id="XMLID 1942">
<path d="M 3.70504 7.41025C 5.75127 7.41025 7.41008 5.75141 7.41008 3.70512C 7.41008 1.65884 5.75127 0 3.70504 0C 1.6588 0 0 1.65884 0 3.70512C 0 5.75141 1.6588 7.41025 3.70504 7.41025Z" transform="translate(34.6978 29.9448)" fill="#3B4256"/>
</g>
<g id="XMLID 1940">
<path d="M 3.70504 7.41025C 5.75127 7.41025 7.41008 5.75141 7.41008 3.70512C 7.41008 1.65884 5.75127 0 3.70504 0C 1.6588 0 0 1.65884 0 3.70512C 0 5.75141 1.6588 7.41025 3.70504 7.41025Z" transform="translate(0.901855 29.9448)" fill="#3B4256"/>
</g>
<g id="Vector">
<path d="M 43 14.3598C 43 11.8211 40.9416 9.76271 38.403 9.76271C 37.021 9.76271 35.786 10.3704 34.943 11.3408L 25.8568 6.07719C 26.0137 5.6165 26.1019 5.1166 26.1019 4.5971C 26.1019 2.0584 24.0435 0 21.5049 0C 18.9663 0 16.9079 2.0584 16.9079 4.5971C 16.9079 5.1166 16.9961 5.6067 17.153 6.06739L 8.06679 11.331C 7.22384 10.3704 5.98883 9.75291 4.60679 9.75291C 2.06816 9.75291 0.00980172 11.8113 0.00980172 14.35C 0.00980172 16.5456 1.55847 18.3884 3.61682 18.8393L 3.62662 29.1509C 1.55847 29.6018 0 31.4446 0 33.6402C 0 36.1789 2.05835 38.2373 4.59699 38.2373C 5.94962 38.2373 7.16503 37.6492 8.00798 36.718L 17.1235 41.9816C 16.9765 42.4325 16.8981 42.903 16.8981 43.4029C 16.8981 45.9416 18.9565 48 21.4951 48C 24.0337 48 26.0921 45.9416 26.0921 43.4029C 26.0921 42.903 26.0137 42.4325 25.8666 41.9816L 34.9822 36.718C 35.8252 37.6492 37.0406 38.2373 38.3932 38.2373C 40.9318 38.2373 42.9902 36.1789 42.9902 33.6402C 42.9902 31.4152 41.3925 29.543 39.2852 29.1313L 39.2852 18.8589C 41.4023 18.457 43 16.5946 43 14.3598ZM 38.403 11.5369C 39.9615 11.5369 41.2259 12.8013 41.2259 14.3598C 41.2259 15.9183 39.9615 17.1828 38.403 17.1828C 36.8445 17.1828 35.5801 15.9183 35.5801 14.3598C 35.5801 12.8013 36.8543 11.5369 38.403 11.5369ZM 21.5049 1.78395C 23.0634 1.78395 24.3278 3.0484 24.3278 4.6069C 24.3278 5.0872 24.2102 5.53808 23.9945 5.93996C 23.9749 5.95957 23.9651 5.97917 23.9455 6.00858C 23.9357 6.02818 23.9259 6.04778 23.9161 6.06739C 23.426 6.88095 22.5243 7.42985 21.5049 7.42985C 19.9464 7.42985 18.682 6.16541 18.682 4.6069C 18.682 3.0484 19.9464 1.78395 21.5049 1.78395ZM 1.78391 14.3598C 1.78391 12.8013 3.04832 11.5369 4.60679 11.5369C 6.16526 11.5369 7.42968 12.8013 7.42968 14.3598C 7.42968 15.9183 6.16526 17.1828 4.60679 17.1828C 3.04832 17.1828 1.78391 15.9183 1.78391 14.3598ZM 4.60679 36.4729C 3.04832 36.4729 1.78391 35.2085 1.78391 33.65C 1.78391 32.0915 3.04832 30.827 4.60679 30.827C 6.16526 30.827 7.42968 32.0915 7.42968 33.65C 7.41988 35.2085 6.15546 36.4729 4.60679 36.4729ZM 21.5049 46.2258C 19.9464 46.2258 18.682 44.9614 18.682 43.4029C 18.682 41.8444 19.9464 40.5799 21.5049 40.5799C 23.0634 40.5799 24.3278 41.8444 24.3278 43.4029C 24.3278 44.9614 23.0634 46.2258 21.5049 46.2258ZM 25.0041 40.4329C 24.1612 39.4429 22.9065 38.8058 21.5049 38.8058C 20.1033 38.8058 18.8486 39.4331 18.0057 40.4329L 8.92934 35.1987C 9.10577 34.7184 9.20378 34.1891 9.20378 33.65C 9.20378 31.3857 7.5669 29.5038 5.41053 29.1215L 5.40073 18.8785C 7.5571 18.506 9.20378 16.6143 9.20378 14.35C 9.20378 13.8305 9.11557 13.3306 8.95874 12.8699L 18.0449 7.60629C 18.8878 8.57668 20.1327 9.1844 21.5147 9.1844C 22.8967 9.1844 24.1318 8.57668 24.9747 7.60629L 34.0609 12.8699C 33.904 13.3306 33.8158 13.8305 33.8158 14.35C 33.8158 16.575 35.4135 18.4472 37.5209 18.8589L 37.5209 29.1313C 35.4135 29.543 33.8158 31.4053 33.8158 33.6402C 33.8158 34.1891 33.9138 34.7086 34.0903 35.1889L 25.0041 40.4329ZM 41.2259 33.65C 41.2259 35.2085 39.9615 36.4729 38.403 36.4729C 36.8445 36.4729 35.5801 35.2085 35.5801 33.65C 35.5801 32.0915 36.8445 30.827 38.403 30.827C 39.9615 30.827 41.2259 32.0915 41.2259 33.65Z" fill="#3B4256"/>
</g>
<g id="Vector_2">
<path d="M 14.6536 14.0854L 14.6536 10.8801C 15.1927 10.3606 15.4965 9.64509 15.4965 8.88054L 15.4965 4.67552C 15.4965 2.09761 13.399 -5.98262e-07 10.8211 -5.98262e-07L 9.91936 -5.98262e-07C 7.34152 -5.98262e-07 5.24396 2.09761 5.24396 4.67552L 5.24396 8.88054C 5.24396 9.64509 5.55761 10.3606 6.08691 10.8801L 6.08691 14.0854C 5.06753 14.6147 2.61711 15.9575 0.323513 17.8395C -0.0587523 18.1532 -0.10776 18.7119 0.205894 19.0941C 0.519547 19.4764 1.07824 19.5254 1.46051 19.2118C 3.99915 17.124 6.74362 15.7419 7.27291 15.487C 7.64537 15.3008 7.87081 14.9381 7.87081 14.5166L 7.87081 10.4586C 7.87081 10.1646 7.72379 9.88034 7.47874 9.72351C 7.1945 9.53727 7.02787 9.22361 7.02787 8.88054L 7.02787 4.67552C 7.02787 3.0778 8.33149 1.77415 9.92917 1.77415L 10.8309 1.77415C 12.4286 1.77415 13.7322 3.0778 13.7322 4.67552L 13.7322 8.88054C 13.7322 9.2138 13.5656 9.52747 13.2813 9.72351C 13.0363 9.89014 12.8893 10.1646 12.8893 10.4586L 12.8893 14.5166C 12.8893 14.9283 13.1245 15.3008 13.497 15.487C 14.0263 15.7419 16.7707 17.1338 19.3094 19.2118C 19.476 19.349 19.672 19.4176 19.8681 19.4176C 20.1229 19.4176 20.3778 19.3098 20.5542 19.0941C 20.8678 18.7119 20.809 18.1532 20.4366 17.8395C 18.1234 15.9575 15.673 14.6049 14.6536 14.0854Z" transform="translate(11.1348 13.4678)" fill="#3B4256"/>
</g>
</g>
</g>
</g>
</svg>

