<svg width="40" height="40" viewBox="0 0 40 40" version="1.1" xmlns="http://www.w3.org/2000/svg" xmlns:xlink="http://www.w3.org/1999/xlink">
<g id="Canvas" fill="none">
<g id="Group 27.3">
<g id="Vector">
<path d="M -4.51269e-06 14.7545C 0.957696 20.8375 6.19445 25.4894 12.5102 25.4894C 19.5052 25.4894 25.1763 19.7831 25.1763 12.7447C 25.1763 5.70629 19.5052 7.37861e-06 12.5102 7.37861e-06C 6.37467 7.37861e-06 1.25806 4.38928 0.0924175 10.2176" stroke-width="3" stroke-miterlimit="1.41421" stroke-linecap="round" stroke-linejoin="round" transform="translate(5.35938 12.5105)" stroke="black"/>
</g>
<g id="Vector_2">
<path d="M 6.14939 -2.83793e-06C 2.75296 -2.83793e-06 -8.32027e-06 2.77119 -8.32027e-06 6.18753C -8.32027e-06 9.60503 2.75296 12.3751 6.14939 12.3751C 9.54467 12.3751 12.2976 9.60503 12.2976 6.18753C 12.2976 2.77119 9.54467 -2.83793e-06 6.14939 -2.83793e-06Z" stroke-width="3" stroke-miterlimit="1.41421" stroke-linecap="round" stroke-linejoin="round" transform="translate(11.7202 19.0679)" stroke="black"/>
</g>
<g id="Vector_3">
<path d="M 2.42024 5.67586e-06C 1.08361 5.67586e-06 7.61516e-06 1.09035 7.61516e-06 2.43527C 7.61516e-06 3.77902 1.08361 4.86936 2.42024 4.86936C 3.75686 4.86936 4.83934 3.77902 4.83934 2.43527C 4.83934 1.09035 3.75686 5.67586e-06 2.42024 5.67586e-06Z" stroke-width="3" stroke-miterlimit="1.41421" stroke-linecap="round" stroke-linejoin="round" transform="translate(2 22.491)" stroke="black"/>
</g>
<g id="Vector_4">
<path d="M -0.719751 9.96753C -1.44658 10.365 -1.71355 11.2765 -1.31604 12.0033C -0.918531 12.7301 -0.00707677 12.9971 0.719751 12.5996L -0.719751 9.96753ZM 19.7616 0.475838L 20.4814 1.79188C 20.5022 1.7805 20.5227 1.76864 20.5429 1.75629L 19.7616 0.475838ZM 20.6316 3.25472e-09L 21.8202 -0.915029C 21.3697 -1.50019 20.5603 -1.67041 19.9123 -1.31627L 20.6316 3.25472e-09ZM 23.9471 4.30675L 25.1359 3.392L 25.1357 3.39172L 23.9471 4.30675ZM 24.065 6.70714L 22.8738 5.79547L 22.8733 5.79611L 24.065 6.70714ZM 20.5334 11.3266L 19.3417 10.4156L 19.3416 10.4157L 20.5334 11.3266ZM 15.5204 23.2324C 15.5078 24.0607 16.1691 24.7425 16.9974 24.7551C 17.8257 24.7677 18.5075 24.1065 18.5201 23.2781L 15.5204 23.2324ZM 0.719749 12.5996L 20.4814 1.79188L 19.0419 -0.840202L -0.719749 9.96753L 0.719749 12.5996ZM 20.5429 1.75629C 20.8026 1.59787 20.9719 1.50598 21.0737 1.45366C 21.1244 1.42762 21.1624 1.40929 21.1931 1.39469C 21.2024 1.39029 21.2326 1.37603 21.2471 1.36905C 21.2617 1.36207 21.3043 1.34173 21.3509 1.31627L 19.9123 -1.31627C 19.9427 -1.33289 19.9639 -1.3427 19.9513 -1.33665C 19.9387 -1.3306 19.9358 -1.32933 19.9054 -1.31488C 19.8568 -1.2918 19.7893 -1.25921 19.7024 -1.21459C 19.5293 -1.12559 19.296 -0.997242 18.9803 -0.80461L 20.5429 1.75629ZM 19.9118 -1.31604L -0.719751 9.96753L 0.719751 12.5996L 21.3513 1.31604L 19.9118 -1.31604ZM 19.443 0.915029L 22.7586 5.22178L 25.1357 3.39172L 21.8202 -0.915029L 19.443 0.915029ZM 22.7584 5.22151C 22.8981 5.40311 22.9515 5.52213 22.9713 5.57957C 22.989 5.63097 22.983 5.64113 22.9844 5.62427C 22.9867 5.59572 22.9985 5.63258 22.8738 5.79547L 25.2561 7.61881C 25.5185 7.27606 25.9092 6.68172 25.9748 5.86389C 26.0432 5.00979 25.74 4.177 25.1359 3.392L 22.7584 5.22151ZM 22.8733 5.79611L 19.3417 10.4156L 21.725 12.2376L 25.2566 7.61817L 22.8733 5.79611ZM 19.3416 10.4157C 16.4492 14.1998 15.5887 18.756 15.5204 23.2324L 18.5201 23.2781C 18.5836 19.1154 19.3843 15.3 21.7251 12.2375L 19.3416 10.4157Z" transform="translate(13.5156 2)" fill="black"/>
</g>
</g>
</g>
</svg>

